<?xml version="1.0" encoding="UTF-8" standalone="no"?>
<svg width="180px" height="191px" viewBox="0 0 180 191" version="1.1" xmlns="http://www.w3.org/2000/svg" xmlns:xlink="http://www.w3.org/1999/xlink">
    <!-- Generator: Sketch 3.6.1 (26313) - http://www.bohemiancoding.com/sketch -->
    <title>Wapou(tine)</title>
    <desc>Created with Sketch.</desc>
    <defs>
        <linearGradient x1="88.8743857%" y1="56.8311102%" x2="39.8278399%" y2="61.7744601%" id="linearGradient-1">
            <stop stop-color="#602504" offset="0%"></stop>
            <stop stop-color="#78511F" offset="100%"></stop>
        </linearGradient>
        <path id="path-2" d="M32.8628571,65.9701493 C31.4074573,64.7672667 27.8114286,67.1343284 27.8114286,69.4626866 C27.8114286,71.7910448 25.0914286,75.2835821 25.0914286,75.2835821 L15.7657143,78.3880597 L13.4342857,72.5671642 L20.04,63.2537313 L9.93714286,69.0746269 L9,74.5074615 L0,76 L1.77714286,64.0298507 L14.9885714,55.1044776 L13.8228571,52.7761194 L14.9885714,47.3432836 L20.8171429,45.7910448 L21.5942857,40.7462687 L26.6457143,38.4179104 L25.48,32.5970149 L30.92,26 L36.36,29.880597 L37.9142857,22.5074627 L43.3542857,24.4477612 L44.52,23.6716418 C44.52,23.6716418 42.5771429,20.5671642 40.2457143,19.4029851 C37.9142857,18.238806 34.8057143,17.4626866 34.8057143,17.4626866 L32.8628571,8.53731343 L42.1885714,8.14925373 L47.24,12.8059701 L52.68,18.6268657 L55.4,17.4626866 L60.4514286,19.0149254 L57.7314286,14.7462687 L57.7314286,8.53731343 L65.8914286,3.10447761 L67.0571429,5.04477612 L70.1657143,8.92537313 L72.4971429,14.358209 L79.88,14.358209 L82.9885714,19.4029851 L84.1542857,17.4626866 L85.7085714,17.8507463 C85.7085714,17.8507463 87.6514286,4.26865672 85.32,4.26865672 C82.9885714,4.26865672 93.0914286,0.388059701 93.0914286,0.388059701 L95.8114286,3.49253731 C95.8114286,3.49253731 96.9771429,8.92537313 95.8114286,10.8656716 C94.6457143,12.8059701 104.748571,1.29249845e-16 105.914286,0 C107.08,0 111.742857,4.26865672 111.742857,4.26865672 C111.742857,4.26865672 112.131429,7.37313433 112.131429,10.0895522 C112.131429,12.8059701 110.965714,12.4179104 110.965714,12.4179104 L102.417143,20.9552239 L103.971429,22.119403 C103.971429,22.119403 112.52,19.0149254 115.628571,22.5074627 C118.737143,26 123.788571,14.7462687 126.897143,16.2985075 C130.005714,17.8507463 134.668571,19.7910448 134.668571,19.7910448 L133.502857,25.2238806 L129.617143,24.4477612 L124.954286,27.5522388 L125.731429,29.4925373 L123.011429,34.1492537 L131.171429,31.0447761 L134.28,34.9253731 L133.891429,40.7462687 L128.84,42.2985075 L130.005714,46.9552239 L136.611429,52 L137,58.5970149 L133.502857,62.0895522 L135.445714,67.5223881 L131.56,73.7313433 C131.56,73.7313433 125.731429,70.6268657 125.731429,72.9552239 C125.731429,75.2835821 120.291429,62.0895522 120.291429,62.0895522 L117.182857,65.5820896 L108.634286,61.7014925 L111.354286,67.9104478 L110.188571,74.8955224 L102.417143,74.119403 L97.7542857,67.1343284 L90.3714286,66.7462687 L87.6514286,68.2985075 L92.3142857,74.5074627 L88.4285714,78.3880597 L82.9885714,79.1641791 L73.6628571,66.7462687 L68.2228571,65.9701493 L68.2228571,69.8507463 L64.3371429,75.2835821 L57.3428571,72.1791045 L55.7885714,67.1343284 L48.7942857,62.4776119 L53.4571429,77.2238806 L51.9028571,82.6567164 L44.9085714,81.4925373 L44.52,75.2835821 L39.08,78.7761194 C39.08,78.7761194 34.0595742,71.1272919 33.2514286,69.4626866 C32.4432829,67.7980812 34.318257,67.1730318 32.8628571,65.9701493 Z"></path>
        <linearGradient x1="50%" y1="0%" x2="50%" y2="100%" id="linearGradient-3">
            <stop stop-color="#BA4400" offset="0%"></stop>
            <stop stop-color="#9B3800" offset="100%"></stop>
        </linearGradient>
    </defs>
    <g id="Page-1" stroke="none" stroke-width="1" fill="none" fill-rule="evenodd">
        <g id="Wapou(tine)" transform="translate(3.000000, 0.000000)">
            <g id="wapuu-original" transform="translate(4.294673, 0.192694)">
                <g id="Page-1">
                    <g id="Artboard" transform="translate(0.000000, 0.000000)">
                        <g id="WAPU" transform="translate(-0.000000, 0.000000)">
                            <path d="M158.617425,10.1733121 C156.357298,10.1733121 153.788225,10.1866481 151.056981,10.1999841 C147.973683,10.2153718 144.682026,10.2317853 141.396527,10.2317853 C136.114685,10.2317853 128.718465,10.193829 123.455098,9.89223037 C115.025295,3.76690551 105.314548,0.497535178 94.5691914,0.173367928 C71.2833101,-0.539594852 50.6660624,9.52190004 39.5019362,26.817659 C35.728899,30.4040158 28.6303334,34.3914779 26.71097,34.817204 C23.4932136,35.5322185 21.4086002,38.3491909 21.756549,41.5139249 C22.00699,43.7954059 23.6297245,46.3589942 27.2508551,47.551027 C26.8331113,47.9613654 26.434869,48.3922207 26.0643395,48.8384635 C23.610223,51.793925 22.5838254,55.1535698 23.174004,58.2998386 C23.2930661,58.9307337 23.4583161,59.5339311 23.6687276,60.1073787 C18.3601995,69.1389245 15.5673717,79.3912268 15.5673717,89.9317916 C15.5673717,92.5938614 15.7469913,95.2425949 16.1031512,97.8656825 C15.2676636,97.7210381 14.4280704,97.6471775 13.5884772,97.6471775 C9.55062926,97.6471775 5.80735738,99.3972702 3.32142249,102.448135 C0.57580903,105.819064 -0.386951879,110.328682 0.610706547,115.146054 C2.64194731,124.958268 17.5144479,141.500031 29.3734453,144.345727 C30.5414858,144.624757 31.6571798,144.767349 32.6887092,144.767349 C35.8613042,144.767349 38.4816971,143.430672 40.0695342,141.003521 C40.5734953,140.232085 40.9378664,139.41346 41.1903603,138.57637 C49.283505,144.154919 58.6391188,147.609968 68.5500134,148.613245 C70.6972371,155.615668 76.4625122,156.78308 80.0600356,156.78308 C85.4835205,156.78308 90.1690252,154.579564 93.5099492,150.517215 C93.8117101,150.521318 94.1144973,150.524395 94.4183111,150.524395 C96.7112833,150.524395 99.5605628,150.367441 102.820402,149.864777 C92.3860439,161.567625 77.3123694,168.302302 66.2129063,168.304354 C61.5315069,168.304354 55.2468749,167.111295 51.8700267,161.434265 C47.4021184,153.923022 40.2399161,149.25645 33.1803537,149.25645 C25.7646314,149.25645 20.6121157,154.489289 20.3606483,162.276484 C20.2241374,166.491684 22.4339714,171.076189 26.7520259,175.532463 C34.0158414,183.030369 48.101095,190.595981 63.1973504,190.595981 C66.5331423,190.595981 69.8022184,190.222573 72.9132295,189.486016 C99.6652553,183.153471 123.634718,161.746122 130.607036,138.200911 C156.141755,118.703687 154.117698,65.1032474 145.656077,41.2041195 C145.068978,39.5453269 144.434664,37.9203873 143.754162,36.33443 C144.783639,36.4534278 145.801825,36.512927 146.80359,36.512927 C149.142749,36.512927 151.421352,36.1846564 153.577813,35.5383735 C166.85016,31.5591181 172.846375,21.7120248 172.721154,16.3088954 C172.655465,13.4570443 170.968067,11.2032612 168.424654,10.5672369 C167.357201,10.3015428 165.61643,10.1733121 158.617425,10.1733121 Z" id="Fill-1" fill="#000000"></path>
                            <path d="M29.760397,120.721525 C28.4291595,118.274883 26.9819389,115.75438 25.5624311,113.489313 C26.7797386,116.013919 28.1817977,118.431838 29.760397,120.721525" id="Fill-2" fill="#005683"></path>
                            <circle id="Oval-2" stroke="#000000" stroke-width="3" fill="#D1AC00" cx="70.5" cy="86.5" r="24.5"></circle>
                            <path d="M68.816564,107.668048 C67.1540098,107.768488 65.8011255,107.67898 64.1488207,107.35921 C63.6502739,102.721856 63.3288907,96.9290928 65.831873,86.8317284 C70.3788231,97.8228099 75.3869838,105.882663 75.4228558,105.927076 C74.5714466,106.30629 71.9813467,107.45965 68.816564,107.668048 M61.1912165,106.496923 C48.1814192,100.978834 45.7933735,87.8983129 50.1587678,77.8289627 C50.32495,87.7937726 53.3147655,95.563236 61.1912165,106.496923 M78.8006739,104.037151 C80.864408,95.7361033 84.2949358,87.8006053 86.313281,79.487259 C86.7027476,77.880208 87.0402367,75.3794397 86.4333422,72.5910147 C92.4459168,81.3573691 91.7555652,94.973574 78.8006739,104.037151 M51.9882362,74.4884555 C57.8609836,66.0521207 69.0918261,59.1907232 81.4185927,67.616809 C81.3358675,67.6133926 73.5165189,67.948195 79.1996576,75.7948678 C82.2714662,80.0352416 82.4669316,83.437243 80.0371574,90.3553518 C79.1601252,93.7662359 78.8951122,94.7959237 78.1117865,98.3079317 C74.3613395,89.9419735 71.3005122,82.8195669 68.8831833,73.7115775 C71.0084122,73.4205045 73.416224,73.0904851 72.1790084,71.8141367 C72.0230753,71.6535682 60.8281048,72.6900888 60.721221,72.7071706 C59.8617589,72.8438247 59.7109503,73.7881037 59.7094863,73.7969864 C59.6201723,74.5424339 59.7651243,74.534918 62.190506,74.3982639 C62.829612,77.6137327 63.1209799,79.08208 64.7022732,83.7754617 C63.5609602,88.2051011 62.3793828,92.7857433 62.217593,99.8787695 C57.1164582,90.4024975 55.0746863,83.8205574 54.6852197,75.59262 C55.4092471,75.1819746 56.3763249,75.3432265 57.0161631,74.7316997 C57.4524828,74.3142218 57.6647861,73.3726756 57.1208505,73.2633524 C55.1918193,72.875255 53.719606,74.1509202 51.9882362,74.4884555 M54.9509648,104.853658 C72.2500203,119.248791 93.6223698,100.648815 92.884433,83.3907807 C92.3112141,70.0109872 80.4412656,61.538439 69.7133622,62.019461 C50.4142638,63.5062565 37.8825148,90.6491581 54.9509648,104.853658 Z" id="Fill-5" fill="#FFFFFF"></path>
                            <path d="M91.9713794,122.946585 C91.954957,122.881957 91.9405875,122.81938 91.924165,122.753726 C91.7773903,122.168994 91.6152194,121.566822 91.4325205,120.941056 C89.9083203,115.454833 82.6599008,104.543938 77.1235124,104.543938 C76.2726289,104.543938 75.4792235,104.797322 74.698135,105.317426 C69.8504591,108.54884 70.828616,114.394109 72.8762794,122.942481 C73.3822931,125.056749 73.9057559,127.243853 74.2198337,129.285285 C74.6293663,131.9412 74.5298056,134.908972 74.4343508,137.777236 C74.2865495,142.231459 74.1336162,146.838532 76.0550325,148.823543 C76.895652,149.692435 78.2053354,150.115083 80.0600356,150.115083 C80.5968416,150.115083 81.1018294,150.075075 81.5903944,150.013524 C81.739222,149.995059 81.8798386,149.967361 82.0235342,149.943767 C82.3642981,149.888371 82.6937717,149.820665 83.0109287,149.738598 C83.151545,149.701667 83.2921616,149.663711 83.4286724,149.621651 C83.7591724,149.521118 84.0753031,149.405198 84.3791166,149.276967 C84.4684132,149.240037 84.5628417,149.207209 84.6500855,149.168227 C85.0401167,148.990756 85.4116726,148.79482 85.7606476,148.579392 C85.7945188,148.557849 85.8253108,148.533229 85.8591819,148.511686 C86.1681276,148.314724 86.4596245,148.105451 86.7357253,147.884894 C86.8168109,147.820266 86.8937906,147.753586 86.9728233,147.686906 C87.199657,147.495073 87.4162271,147.296059 87.6215066,147.091916 C87.6902752,147.023184 87.7610966,146.954452 87.8278123,146.884695 C88.0577256,146.642595 88.2753217,146.394341 88.4785485,146.141983 C88.5021557,146.112233 88.5288418,146.084535 88.5514227,146.054786 C88.7782565,145.767549 88.9866152,145.475183 89.1806043,145.181791 C89.2267924,145.113059 89.2668218,145.043302 89.3099303,144.975596 C89.4474677,144.758117 89.5788466,144.540637 89.6999616,144.32521 C89.7584663,144.221599 89.8138917,144.120041 89.8682906,144.017456 C89.9627194,143.838959 90.0520158,143.662513 90.1361806,143.487094 C90.1885269,143.377328 90.2439523,143.266537 90.2932194,143.157797 C90.3630144,143.004946 90.4235717,142.85825 90.4851556,142.710529 C90.6144819,142.401749 90.7304647,142.103228 90.8269461,141.828301 C90.8331046,141.812913 90.8392627,141.7965 90.8443949,141.782138 C90.912137,141.585176 90.9737209,141.398472 91.0270935,141.225104 C91.2600859,140.467004 91.3658047,139.935616 91.3812009,139.846367 C91.3965967,139.758145 91.418151,139.665818 91.4458637,139.581699 C92.9844338,134.714061 93.6023251,130.619911 92.3490938,124.593067 C92.2382428,124.059627 92.1109694,123.509774 91.9713794,122.946585" id="Fill-6" fill="#FFD200"></path>
                            <path d="M141.345207,16.3878855 C135.215561,16.3878855 126.436783,16.3365932 120.991744,15.8954796 C120.517548,15.8575233 120.098778,15.8575233 119.827809,15.8800919 C120.22913,16.5356073 121.213446,17.6835287 122.785887,18.9935337 L123.182076,19.3289852 C133.878165,28.4436245 141.929228,30.3578525 146.799484,30.3588786 L146.801537,30.3588786 C148.541281,30.3588786 150.224573,30.1178048 151.808304,29.6428383 C159.322561,27.390081 163.93827,22.7358189 165.750889,19.1320229 C166.427284,17.7850874 166.564822,16.9008084 166.564822,16.4853408 C165.54253,16.3817304 162.88416,16.3294123 158.641033,16.3294123 C156.382958,16.3294123 153.814911,16.3417225 151.083667,16.3560843 C147.976762,16.371472 144.657392,16.3878855 141.345207,16.3878855" id="Fill-7" fill="#FFD200"></path>
                            <path d="M8.09827671,106.334039 C6.54328442,108.243138 6.02598005,110.928802 6.64079218,113.898625 C8.20912765,121.475522 21.6836748,136.170762 30.8104018,138.359917 C31.5073258,138.52713 32.1395866,138.612275 32.6887092,138.612275 C34.1112965,138.612275 34.6409174,138.055241 34.9159919,137.63567 C36.0286069,135.933792 35.3973724,132.23254 34.5146706,130.215728 C31.9876797,124.443294 23.9797261,109.310017 19.9326405,106.197602 C17.8952414,104.630109 15.7018298,103.802252 13.5884772,103.802252 C11.3786433,103.802252 9.42746156,104.701919 8.09827671,106.334039" id="Fill-8" fill="#FFD200"></path>
                            <path d="M29.2276968,57.1642275 C29.6988134,59.6734459 31.3646565,60.2007306 32.6794718,60.2007306 C34.4079252,60.2007306 36.3652653,59.2764438 37.9151257,57.7263909 C39.6446057,55.9978407 40.4205621,53.7173858 39.9905015,51.6236346 C39.7236381,50.3238879 39.0133712,49.327792 38.0906398,48.9595134 C37.9397592,48.8989884 37.7324268,48.8671872 37.4901972,48.8671872 C35.8325651,48.8671872 32.8046923,50.3587669 30.803217,52.7695042 C30.0724219,53.6507058 28.8941176,55.3925918 29.2276968,57.1642275" id="Fill-9" fill="#FFD200"></path>
                            <path d="M123.885159,138.957985 C120.806992,140.796301 117.791436,142.259157 114.898021,143.404 C105.401791,160.769517 84.7732533,174.112692 66.8749328,174.452247 C57.63017,174.604072 50.4679677,171.1203 46.5768947,164.580533 C42.2116257,157.242659 35.5441475,154.5334 31.2065912,155.649521 C28.2998334,156.398388 26.6339902,158.821436 26.5159544,162.474472 C26.4122883,165.679214 29.2430927,169.954939 34.0876893,173.912652 C42.7976987,181.02997 57.7441002,186.752137 71.4937217,183.496103 C95.2630362,177.870365 116.612105,159.507726 123.885159,138.957985" id="Fill-10" fill="#FF8800"></path>
                            <path d="M28.0473396,40.8255824 C27.9036439,40.8573836 27.8595088,40.9066243 27.8584825,40.9066243 C27.872852,40.9014951 27.9642014,41.0738371 28.3049654,41.3036267 C28.9290152,41.7252492 31.4724283,42.910101 38.3595558,41.0707596 C38.1481179,39.4745435 38.2281769,37.483377 38.9209953,35.1177767 C34.8964905,37.9152581 30.3577606,40.3126597 28.0473396,40.8255824" id="Fill-11" fill="#FFD200"></path>
                            <path d="M32.6794718,63.278268 L32.6794718,63.278268 C29.3252046,63.278268 26.8423489,61.1527157 26.199824,57.7304941 C25.7820802,55.5023572 26.5754855,53.0423792 28.4332651,50.803984 C30.8463256,47.8987887 34.655287,45.7896498 37.4901972,45.7896498 C38.1286165,45.7896498 38.7157159,45.8942862 39.2340465,46.101507 C41.119539,46.8555038 42.529809,48.6886899 43.0060574,51.0050495 C43.6455033,54.1143881 42.5564955,57.4412057 40.092115,59.9032354 C37.946944,62.048279 35.2444392,63.278268 32.6794718,63.278268 L32.6794718,63.278268 L32.6794718,63.278268 Z M37.4901972,48.8671872 C35.8325651,48.8671872 32.8046923,50.3587669 30.803217,52.7695042 C30.0724219,53.6507058 28.8941176,55.3925918 29.2276968,57.1642275 C29.6988134,59.6734459 31.3646565,60.2007306 32.6794718,60.2007306 C34.4079252,60.2007306 36.3652653,59.2764438 37.9151257,57.7263909 C39.6446057,55.9978407 40.4205621,53.7173858 39.9905015,51.6236346 C39.7236381,50.3238879 39.0133712,49.327792 38.0906398,48.9595134 C37.9397592,48.8989884 37.7324268,48.8671872 37.4901972,48.8671872 L37.4901972,48.8671872 L37.4901972,48.8671872 Z" id="Fill-12" fill="#000000"></path>
                            <path d="M133.56614,29.9947032 C129.885479,28.2025508 125.746017,25.5579205 121.18368,21.670991 L120.815203,21.3570822 C115.77046,17.1572698 116.466357,15.2379124 116.694217,14.6070173 C116.876916,14.1012754 117.201258,13.7063248 117.648767,13.4108812 C110.80988,9.03359749 102.958965,6.58490374 94.3834136,6.3263906 C73.0723211,5.68113363 54.3949648,14.7444806 44.4111957,30.5702026 C41.6820048,34.8982459 40.7387454,38.8313384 41.6861103,41.9468317 C42.3758495,44.2160027 43.9585545,45.6152563 45.1040141,46.1240758 C47.0439054,46.9878379 59.3863361,42.7059577 62.9725693,36.1887599 C63.1768224,35.8204813 63.5216919,35.5496577 63.9291719,35.4429699 C64.3387045,35.336282 64.7708177,35.3998844 65.1290304,35.6204412 C73.5495961,40.7989104 83.0150343,38.4312586 91.2241618,35.8061192 C92.0370689,35.548632 92.900269,35.9938491 93.1599476,36.8032412 C93.2985113,37.2382001 93.2287163,37.6864946 93.0141992,38.0516957 C98.4397367,37.9091031 103.883749,38.7359348 108.681131,40.6286201 C109.471458,40.9404773 109.859436,41.8339889 109.547411,42.6249158 C109.235386,43.415843 108.340368,43.8046383 107.550041,43.4907297 C95.7464696,38.8354417 79.761354,41.1158968 71.156037,48.6856124 C68.2051439,51.2810022 66.9231735,53.7881692 67.547223,55.7444569 C68.1887215,57.7551147 70.8060354,59.3369685 74.0627949,59.6785752 C76.5107529,59.9329849 80.2355497,59.109231 84.1820482,58.2331586 C90.2634537,56.8841715 97.1587926,55.3546356 103.295624,56.6246325 C113.241416,58.6814532 119.840126,64.6446943 129.826974,73.6711109 L131.044281,74.7708175 C131.67449,75.340162 131.723757,76.3136897 131.154106,76.9435588 C130.850292,77.2810622 130.431522,77.4513526 130.011726,77.4513526 C129.66275,77.4513526 129.317881,77.3241477 129.032542,77.0871772 C130.017884,81.2767311 130.523898,85.5781023 130.523898,89.9317916 C130.523898,95.1512948 129.799261,100.308221 128.382833,105.27434 C129.968617,106.17093 131.300881,107.248067 132.25543,108.483186 C132.775814,109.155115 132.65162,110.122487 131.97933,110.640539 C131.308066,111.160643 130.33812,111.037542 129.819789,110.364587 C127.160393,106.924926 120.387196,104.920424 113.69611,105.594404 C108.823801,106.087836 99.9454619,108.420609 94.9140612,118.411321 C95.1059974,118.924244 95.2650891,119.39921 95.3810719,119.816729 C98.0189138,128.852379 97.394864,134.334498 95.4005735,140.688587 C95.2045317,141.760596 94.8247645,143.038799 94.2561402,144.370347 C101.03139,144.389838 112.990975,142.902362 125.717278,134.144717 C149.812987,117.562946 147.693476,65.4058721 139.850773,43.2578627 C138.129504,38.3963799 136.015125,33.9719071 133.56614,29.9947032 Z" id="Fill-13" fill="#FFD200"></path>
                            <path d="M123.754517,71.2443591 C115.516651,63.8633991 109.837593,59.3271092 101.671574,57.6385672 C96.1813732,56.5039819 89.6288514,57.9565794 83.8481802,59.2378608 C79.4675156,60.2103626 75.6842141,61.051556 72.7405061,60.7396988 C68.2192246,60.2637065 64.6350444,57.8857962 63.6137789,54.6790022 C62.8942741,52.42009 63.0913425,48.7998805 68.1217169,44.3754077 C70.2145417,42.5340149 72.7189515,40.9952462 75.4645651,39.7447402 C71.5047232,39.7508952 67.5920959,38.9897177 63.8313753,36.9944477 C58.9744621,43.7363059 46.6474272,48.6203574 42.853862,46.9369446 C42.0111896,46.562511 41.0699831,45.9203314 40.2006243,45.0247683 C40.1185124,45.0883708 40.0425589,45.1581282 39.9604473,45.2227564 C40.9611848,46.1593537 41.6909536,47.4714103 42.0060574,49.0050495 C42.6455033,52.1143881 41.5564955,55.4412057 39.092115,57.9032354 C36.946944,60.048279 34.2444392,61.278268 31.6794718,61.278268 C29.8853289,61.278268 28.3539436,60.6545536 27.2064312,59.5651055 C22.1319217,67.8241896 19.1861607,77.5276642 19.1861607,87.9317916 C19.1861607,92.7758351 19.8338176,97.4660019 21.0234123,101.935612 C26.116397,106.131321 34.5051441,122.799262 36.3352111,126.980609 C36.4347718,127.209373 36.5476753,127.498662 36.6636584,127.833087 C45.3931696,135.900338 56.7666808,141.153694 69.3462092,142.124144 C69.1881441,140.044755 69.2589654,137.828928 69.3318397,135.640799 C69.42011,132.960264 69.5124856,130.187403 69.162484,127.910026 C68.8740663,126.035806 68.3926858,124.025148 67.8825662,121.896518 C65.9827045,113.95955 63.8272695,104.962882 71.421585,99.9034114 C72.8770168,98.9329611 74.4597218,98.4405554 76.1235124,98.4405554 C82.9470034,98.4405554 89.1495238,106.663735 92.3498313,112.916264 C96.7079152,105.865627 103.870117,101.394991 112.387164,100.532255 C116.700087,100.094219 121.003772,100.653305 124.551002,101.966387 C125.80218,97.4177872 126.444705,92.7030002 126.444705,87.9317916 C126.444705,82.2229602 125.539423,76.6095324 123.754517,71.2443591" id="Fill-3" fill="#FFD200"></path>
                            <path d="M167.677437,13.5534738 C166.933298,13.3667699 165.16071,13.2518751 158.641033,13.2518751 C156.378852,13.2518751 153.805674,13.2641853 151.068271,13.2785471 C147.965472,13.2939348 144.653287,13.3103483 141.345207,13.3103483 C135.67744,13.3103483 127.732097,13.266237 122.360958,12.9102685 C114.400219,6.92240697 104.950176,3.56583974 94.4757895,3.24885341 C72.142405,2.56461432 52.5166573,12.1070313 41.9201288,28.7575333 C37.8443044,32.7778229 30.0108382,37.2361483 27.3801812,37.8219062 C26.1618473,38.0917037 25.2432215,38.9093026 24.9188798,40.0069575 C24.5924854,41.1179486 24.9435134,42.3335756 25.8559808,43.2578627 C26.6924948,44.1011078 28.4332651,45.1556772 31.9158321,45.1556772 C33.7890076,45.1556772 36.1743554,44.8438203 39.1858058,44.0375054 C40.3168959,46.600068 42.2660249,48.2311629 43.853862,48.9369446 C47.6474272,50.6203574 59.9744621,45.7363059 64.8313753,38.9944477 C68.5920959,40.9897177 72.5047232,41.7508952 76.4645651,41.7447402 C73.7189515,42.9952462 71.2145417,44.5340149 69.1217169,46.3754077 C64.0913425,50.7998805 63.8942741,54.42009 64.6137789,56.6790022 C65.6350444,59.8857962 69.2192246,62.2637065 73.7405061,62.7396988 C76.6842141,63.051556 80.4675156,62.2103626 84.8481802,61.2378608 C90.6288514,59.9565794 97.1813732,58.5039819 102.671574,59.6385672 C110.837593,61.3271092 116.516651,65.8633991 124.754517,73.2443591 C126.539423,78.6095324 127.444705,84.2229602 127.444705,89.9317916 C127.444705,94.7030002 126.80218,99.4177872 125.551002,103.966387 C122.003772,102.653305 117.700087,102.094219 113.387164,102.532255 C104.870117,103.394991 97.7079152,107.865627 93.3498313,114.916264 C90.1495238,108.663735 83.9470034,100.440555 77.1235124,100.440555 C75.4597218,100.440555 73.8770168,100.932961 72.421585,101.903411 C64.8272695,106.962882 66.9827045,115.95955 68.8825662,123.896518 C69.3926858,126.025148 69.8740663,128.035806 70.162484,129.910026 C70.5124856,132.187403 70.42011,134.960264 70.3318397,137.640799 C70.1552992,142.950577 69.9726007,148.439877 73.1041394,151.67642 C74.7361117,153.362911 77.076298,154.218466 80.0600356,154.218466 C86.2307378,154.218466 90.2203451,151.005517 92.6118513,147.414031 C93.1568684,147.434548 93.733704,147.44891 94.363912,147.44891 C98.3350442,147.44891 103.933017,146.951375 110.37674,144.98688 C100.748105,159.941659 82.6352673,171.075163 66.8164281,171.375736 C61.1435289,171.498837 53.4547846,170.119075 49.2229474,163.006886 C44.083775,154.368239 35.8808059,151.265056 30.4388459,152.669439 C26.1526097,153.772223 23.6020118,157.311391 23.4388146,162.374965 C23.3023037,166.593243 26.4738722,171.667076 32.1385603,176.294666 C39.586101,182.378957 51.3301418,187.503056 63.3040955,187.503056 C66.2765429,187.503056 69.2643861,187.187096 72.2039889,186.491572 C98.3186217,180.3088 121.645559,159.273834 127.925059,136.34413 C142.04829,126.259041 146.543911,106.212989 147.816644,91.0827907 C149.438352,71.7948391 146.442298,52.6484546 142.753425,42.2309912 C141.4499,38.5492307 139.918515,35.1188027 138.20751,31.9130347 C141.637731,33.0630078 144.52704,33.4364157 146.799484,33.4364157 L146.801537,33.4364157 C148.840989,33.4364157 150.821936,33.1512304 152.693059,32.5911188 C164.703963,28.9893745 169.729205,20.1137572 169.642988,16.3807046 C169.609117,14.9096418 168.87319,13.8519949 167.677437,13.5534738 L167.677437,13.5534738 L167.677437,13.5534738 Z M38.3595558,41.0707596 C31.4724283,42.910101 28.9290152,41.7252492 28.3049654,41.3036267 C27.9642014,41.0738371 27.872852,40.9014951 27.8584825,40.9066243 C27.8595088,40.9066243 27.9036439,40.8573836 28.0473396,40.8255824 C30.3577606,40.3126597 34.8964905,37.9152581 38.9209953,35.1177767 C38.2281769,37.483377 38.1481179,39.4745435 38.3595558,41.0707596 L38.3595558,41.0707596 L38.3595558,41.0707596 Z M91.4458637,139.581699 C91.418151,139.665818 91.3965967,139.758145 91.3812009,139.846367 C91.3062737,140.264912 89.4454151,150.115083 80.0600356,150.115083 C78.2053354,150.115083 76.895652,149.692435 76.0550325,148.823543 C74.1336162,146.838532 74.2865495,142.231459 74.4343508,137.777236 C74.5298056,134.908972 74.6293663,131.9412 74.2198337,129.285285 C73.9057559,127.243853 73.3822931,125.056749 72.8762794,122.942481 C70.828616,114.394109 69.8504591,108.54884 74.698135,105.317426 C75.4792235,104.797322 76.2726289,104.543938 77.1235124,104.543938 C82.6599008,104.543938 89.9083203,115.454833 91.4325205,120.941056 C93.8147893,129.104737 93.2759307,133.789774 91.4458637,139.581699 L91.4458637,139.581699 L91.4458637,139.581699 Z M71.4937217,183.496103 C57.7441002,186.752137 42.7976987,181.02997 34.0876893,173.912652 C29.2430927,169.954939 26.4122883,165.679214 26.5159544,162.474472 C26.6339902,158.821436 28.2998334,156.398388 31.2065912,155.649521 C35.5441475,154.5334 42.2116257,157.242659 46.5768947,164.580533 C50.4679677,171.1203 57.63017,174.604072 66.8749328,174.452247 C84.7732533,174.112692 105.401791,160.769517 114.898021,143.404 C117.791436,142.259157 120.806992,140.796301 123.885159,138.957985 C116.612105,159.507726 95.2630362,177.870365 71.4937217,183.496103 L71.4937217,183.496103 L71.4937217,183.496103 Z M139.850773,43.2578627 C147.693476,65.4058721 149.812987,117.562946 125.717278,134.144717 C112.990975,142.902362 101.03139,144.389838 94.2561402,144.370347 C94.8247645,143.038799 95.2045317,141.760596 95.4005735,140.688587 C97.394864,134.334498 98.0189138,128.852379 95.3810719,119.816729 C95.2650891,119.39921 95.1059974,118.924244 94.9140612,118.411321 C99.9454619,108.420609 108.823801,106.087836 113.69611,105.594404 C120.387196,104.920424 127.160393,106.924926 129.819789,110.364587 C130.33812,111.037542 131.308066,111.160643 131.97933,110.640539 C132.65162,110.122487 132.775814,109.155115 132.25543,108.483186 C131.300881,107.248067 129.968617,106.17093 128.382833,105.27434 C129.799261,100.308221 130.523898,95.1512948 130.523898,89.9317916 C130.523898,85.5781023 130.017884,81.2767311 129.032542,77.0871772 C129.317881,77.3241477 129.66275,77.4513526 130.011726,77.4513526 C130.431522,77.4513526 130.850292,77.2810622 131.154106,76.9435588 C131.723757,76.3136897 131.67449,75.340162 131.044281,74.7708175 L129.826974,73.6711109 C119.840126,64.6446943 113.241416,58.6814532 103.295624,56.6246325 C97.1587926,55.3546356 90.2634537,56.8841715 84.1820482,58.2331586 C80.2355497,59.109231 76.5107529,59.9329849 74.0627949,59.6785752 C70.8060354,59.3369685 68.1887215,57.7551147 67.547223,55.7444569 C66.9231735,53.7881692 68.2051439,51.2810022 71.156037,48.6856124 C79.761354,41.1158968 95.7464696,38.8354417 107.550041,43.4907297 C108.340368,43.8046383 109.235386,43.415843 109.547411,42.6249158 C109.859436,41.8339889 109.471458,40.9404773 108.681131,40.6286201 C103.883749,38.7359348 98.4397367,37.9091031 93.0141992,38.0516957 C93.2287163,37.6864946 93.2985113,37.2382001 93.1599476,36.8032412 C92.900269,35.9938491 92.0370689,35.548632 91.2241618,35.8061192 C83.0150343,38.4312586 73.5495961,40.7989104 65.1290304,35.6204412 C64.7708177,35.3998844 64.3387045,35.336282 63.9291719,35.4429699 C63.5216919,35.5496577 63.1768224,35.8204813 62.9725693,36.1887599 C59.3863361,42.7059577 47.0439054,46.9878379 45.1040141,46.1240758 C43.9585545,45.6152563 42.3758495,44.2160027 41.6861103,41.9468317 C40.7387454,38.8313384 41.6820048,34.8982459 44.4111957,30.5702026 C54.3949648,14.7444806 73.0723211,5.68113363 94.3834136,6.3263906 C102.958965,6.58490374 110.80988,9.03359749 117.648767,13.4108812 C117.201258,13.7063248 116.876916,14.1012754 116.694217,14.6070173 C116.466357,15.2379124 115.77046,17.1572698 120.815203,21.3570822 L121.18368,21.670991 C125.746017,25.5579205 129.885479,28.2025508 133.56614,29.9947032 C136.015125,33.9719071 138.129504,38.3963799 139.850773,43.2578627 L139.850773,43.2578627 L139.850773,43.2578627 Z M165.750889,19.1320229 C163.93827,22.7358189 159.322561,27.390081 151.808304,29.6428383 C150.224573,30.1178048 148.541281,30.3588786 146.801537,30.3588786 L146.799484,30.3588786 C141.929228,30.3578525 133.878165,28.4436245 123.182076,19.3289852 L122.785887,18.9935337 C121.213446,17.6835287 120.22913,16.5356073 119.827809,15.8800919 C120.098778,15.8575233 120.517548,15.8575233 120.991744,15.8954796 C126.436783,16.3365932 135.215561,16.3878855 141.345207,16.3878855 C144.657392,16.3878855 147.976762,16.371472 151.083667,16.3560843 C153.814911,16.3417225 156.382958,16.3294123 158.641033,16.3294123 C162.88416,16.3294123 165.54253,16.3817304 166.564822,16.4853408 C166.564822,16.9008084 166.427284,17.7850874 165.750889,19.1320229 L165.750889,19.1320229 L165.750889,19.1320229 Z" id="Fill-14" fill="#000000"></path>
                            <path d="M61.5848798,28.0394413 C59.1369215,29.8746793 59.8749014,32.14385 62.6112774,32.4854566 C65.3486796,32.8270633 65.5621702,33.0086381 68.0860819,31.1169785 C70.8224576,29.0652871 71.1652744,25.6451174 68.0860819,25.9877498 C65.0068891,26.3303823 62.9540939,27.0135956 61.5848798,28.0394413" id="Fill-15" fill="#000000"></path>
                            <path d="M54.4000969,29.4079195 C54.4000969,31.1077458 53.0216448,32.4854566 51.3209041,32.4854566 C49.6211897,32.4854566 48.2417116,31.1077458 48.2417116,29.4079195 C48.2417116,27.7080931 49.6211897,26.3303823 51.3209041,26.3303823 C53.0216448,26.3303823 54.4000969,27.7080931 54.4000969,29.4079195" id="Fill-16" fill="#000000"></path>
                            <path d="M89.9822208,20.859547 C89.9822208,22.5593734 88.603769,23.9370842 86.9030283,23.9370842 C85.2022873,23.9370842 83.8238355,22.5593734 83.8238355,20.859547 C83.8238355,19.1597207 85.2022873,17.7820098 86.9030283,17.7820098 C88.603769,17.7820098 89.9822208,19.1597207 89.9822208,20.859547" id="Fill-17" fill="#000000"></path>
                            <path d="M32.6887092,141.689812 L32.6887092,141.689812 C31.8983833,141.689812 31.0249189,141.576969 30.0919235,141.353335 C19.6791203,138.854374 5.42759027,123.227666 3.62523617,114.52234 C2.81951408,110.629255 3.55954671,107.030588 5.70882321,104.392113 C7.60868508,102.061391 10.4805454,100.724715 13.5884772,100.724715 C16.386437,100.724715 19.2295582,101.774155 21.8109481,103.759166 C26.8803256,107.656354 35.4794843,124.741815 37.3352111,128.980609 C38.1070619,130.744038 39.6394736,136.037402 37.4922499,139.320109 C36.7850619,140.40135 35.3768444,141.689812 32.6887092,141.689812 L32.6887092,141.689812 L32.6887092,141.689812 Z M13.5884772,103.802252 C11.3786433,103.802252 9.42746156,104.701919 8.09827671,106.334039 C6.54328442,108.243138 6.02598005,110.928802 6.64079218,113.898625 C8.20912765,121.475522 21.6836748,136.170762 30.8104018,138.359917 C31.5073258,138.52713 32.1395866,138.612275 32.6887092,138.612275 C34.1112965,138.612275 34.6409174,138.055241 34.9159919,137.63567 C36.0286069,135.933792 35.3973724,132.23254 34.5146706,130.215728 C31.9876797,124.443294 23.9797261,109.310017 19.9326405,106.197602 C17.8952414,104.630109 15.7018298,103.802252 13.5884772,103.802252 L13.5884772,103.802252 L13.5884772,103.802252 Z" id="Fill-18" fill="#000000"></path>
                        </g>
                    </g>
                </g>
            </g>
            <g id="Poutine" transform="translate(68.500000, 92.500000) scale(-1, 1) translate(-68.500000, -92.500000) translate(0.000000, 34.000000)">
                <g id="Bowl" transform="translate(25.868571, 52.776119)" stroke="#341907">
                    <path d="M16.1314278,22.2238808 C13.2453579,27.5993393 11.3357933,18.8134899 11.1314287,18.2238808 C7.37876343,7.39712475 0,4.26865672 0,4.26865672 L95.9771429,0 L80.4462696,50.9135576 C79.7201046,53.2940833 77.1607988,55.6194791 74.7172395,56.0758945 C74.7172395,56.0758945 61.9566418,58.8946749 46.1314278,59.2238808 C41.9145967,59.3116019 37.1314278,59.2238808 37.1314278,55.2238808 C38.4066477,50.4340308 31.1314278,66.2238808 37.1314278,42.2238808 C43.1314278,18.2238808 36.865621,16.2238808 25.1314278,16.2238808 C23.3710958,15.2353276 19.1766299,16.5520298 16.1314278,22.2238808 Z" id="Rectangle-8" stroke-width="1.8" fill="url(#linearGradient-1)"></path>
                    <path d="M80.8457143,46.2835821 C80.8457143,46.2835821 75.4789174,49.0625789 70.16,49.7761194 C66.8008222,50.226758 59.1314284,51.2238806 59.1314284,51.2238806" id="Line" stroke-linecap="square"></path>
                </g>
                <path d="M100.672797,98.8009848 C100.273543,98.8248706 99.9486539,98.8035846 99.5518608,98.7275399 C99.4321371,97.6247284 99.3549585,96.2471485 99.9560378,93.8458891 C101.047966,96.4596838 102.250652,98.3764016 102.259267,98.3869633 C102.054805,98.4771446 101.432805,98.7514257 100.672797,98.8009848 M98.8416062,98.522479 C95.7173651,97.2102195 95.1438873,94.0995341 96.192216,91.7049368 C96.2321238,94.0746733 96.9501139,95.9223334 98.8416062,98.522479 M103.070434,97.9375194 C103.56603,95.963443 104.389855,94.0762982 104.874551,92.0992971 C104.968079,91.7171235 105.049126,91.1224145 104.903383,90.4592977 C106.347274,92.5440289 106.181489,95.7821056 103.070434,97.9375194 M96.6315541,90.9105291 C98.0418665,88.90428 100.7389,87.2725676 103.699115,89.2763794 C103.679249,89.2755669 101.801469,89.3551864 103.166248,91.2212077 C103.903928,92.2296131 103.950868,93.0386448 103.367369,94.6838438 C103.156754,95.4949879 103.093113,95.7398585 102.905001,96.5750508 C102.004349,94.5855381 101.269306,92.8917549 100.688795,90.7257794 C101.199159,90.6565591 101.777384,90.5780771 101.480272,90.274548 C101.442826,90.2363631 98.7544066,90.4828586 98.728739,90.4869208 C98.5223432,90.5194186 98.4861273,90.7439781 98.4857757,90.7460905 C98.4643274,90.9233658 98.4991369,90.9215784 99.0815808,90.8890806 C99.2350591,91.6537529 99.3050297,92.0029413 99.6847698,93.1190768 C99.4106889,94.1724916 99.1269387,95.2618164 99.0880856,96.9486126 C97.8630723,94.6950555 97.3727505,93.129801 97.2792219,91.173111 C97.4530937,91.0754552 97.6853328,91.1138026 97.8389869,90.9683751 C97.943767,90.8690945 97.9947507,90.6451849 97.8641271,90.6191867 C97.4008794,90.5268931 97.0473344,90.8302597 96.6315541,90.9105291 M97.3430393,98.1316934 C101.497325,101.555007 106.629794,97.1317374 106.452582,93.0275956 C106.314926,89.8457401 103.464414,87.8308791 100.888159,87.9452712 C96.2535721,88.2988468 93.2441321,94.753714 97.3430393,98.1316934 Z" id="Fill-5" fill="#341907" transform="translate(100.933706, 93.648095) rotate(3.000000) translate(-100.933706, -93.648095) "></path>
                <g id="Fries">
                    <g id="Path-102">
                        <use stroke="#BD700B" stroke-width="1.8" fill="#FFE200" fill-rule="evenodd" xlink:href="#path-2"></use>
                        <use stroke="#000000" stroke-width="2" fill="none" xlink:href="#path-2"></use>
                    </g>
                    <path d="M1.38857143,71.0149254 L3.72,65.5820896 L7.99428571,64.8059701 L25.48,53.9402985 L31.3085714,52" id="Path-103" stroke="#BB6F06" stroke-width="1.35"></path>
                    <path d="M13.8228571,51.6119403 L32.0857143,46.5671642" id="Path-104" stroke="#BB6F06" stroke-width="1.35"></path>
                    <path d="M21.0114286,46.3731343 L25.6742857,48.3134328" id="Line" stroke="#BB6F06" stroke-width="1.35" stroke-linecap="square"></path>
                    <path d="M21.2057143,41.5223881 L28.5885714,43.4626866 L32.4742857,39.1940299 L37.5257143,42.6865672" id="Path-106" stroke="#BB6F06" stroke-width="1.35"></path>
                    <path d="M28.5885714,43.0746269 L27.4228571,47.7313433 L35.9714286,41.5223881" id="Path-107" stroke="#BB6F06" stroke-width="1.35"></path>
                    <path d="M31.6971429,39.1940299 L27.4228571,38.0298507" id="Path-108" stroke="#BB6F06" stroke-width="1.35"></path>
                    <path d="M26.2571429,33.3731343 C26.2571429,33.3731343 36.7485714,36.0895522 39.4685714,40.358209" id="Path-109" stroke="#BB6F06" stroke-width="1.35"></path>
                    <path d="M36.7485714,29.880597 L41.4114286,34.1492537" id="Path-110" stroke="#BB6F06" stroke-width="1.35"></path>
                    <path d="M33.2514286,8.92537313 L41.0228571,15.1343284 L44.1314286,15.5223881 L47.6285714,20.9552239" id="Path-111" stroke="#BB6F06" stroke-width="1.35"></path>
                    <path d="M50.7371429,25.6119403 L50.7371429,22.119403 L53.8457143,17.8507463" id="Path-112" stroke="#BB6F06" stroke-width="1.35"></path>
                    <path d="M51.1257143,21.7313433 L56.1771429,23.2835821" id="Path-113" stroke="#BB6F06" stroke-width="1.35"></path>
                    <path d="M56.1771429,23.2835821 L68.6114286,28.3283582" id="Path-114" stroke="#BB6F06" stroke-width="1.35"></path>
                    <path d="M58.12,9.31343284 L59.2857143,10.4776119 L61.6171429,10.4776119 L66.28,18.238806" id="Path-115" stroke="#BB6F06" stroke-width="1.35"></path>
                    <path d="M69.7771429,19.4029851 L71.3314286,15.1343284 L73.2742857,14.358209" id="Path-116" stroke="#BB6F06" stroke-width="1.35"></path>
                    <path d="M71.72,15.5223881 L77.9371429,23.6716418" id="Path-117" stroke="#BB6F06" stroke-width="1.35"></path>
                    <path d="M93.0914286,1.1641791 L93.8685714,12.8059701" id="Path-118" stroke="#BB6F06" stroke-width="1.35"></path>
                    <path d="M95.8114286,10.8656716 L88.8171429,19.0149254" id="Path-119" stroke="#BB6F06" stroke-width="1.35"></path>
                    <path d="M111.354286,4.65671642 L96.9771429,21.3432836" id="Path-120" stroke="#BB6F06" stroke-width="1.35"></path>
                    <path d="M102.417143,20.5671642 L99.3085714,24.0597015 L103.971429,22.119403" id="Path-121" stroke="#BB6F06" stroke-width="1.35"></path>
                    <path d="M115.24,22.5074627 L111.354286,26.3880597 C111.354286,26.3880597 104.748571,24.8358209 100.862857,27.5522388" id="Path-122" stroke="#BB6F06" stroke-width="1.35"></path>
                    <path d="M110.965714,26.3880597 L107.468571,29.4925373" id="Path-123" stroke="#BB6F06" stroke-width="1.35"></path>
                    <path d="M134.668571,19.7910448 C134.668571,19.7910448 115.628571,26.3880597 111.354286,31.0447761" id="Path-124" stroke="#BB6F06" stroke-width="1.35"></path>
                    <path d="M124.954286,27.5522388 L119.902857,30.6567164" id="Path-125" stroke="#BB6F06" stroke-width="1.35"></path>
                    <path d="M133.502857,34.9253731 L125.342857,37.641791" id="Path-126" stroke="#BB6F06" stroke-width="1.35"></path>
                    <path d="M136.222857,58.5970149 C136.222857,58.5970149 135.057143,53.9402985 127.285714,48.5074627" id="Path-127" stroke="#BB6F06" stroke-width="1.35"></path>
                    <path d="M133.502857,62.0895522 L121.457143,52.3880597" id="Path-128" stroke="#BB6F06" stroke-width="1.35"></path>
                    <path d="M131.56,73.3432836 L127.674286,62.0895522 L119.902857,53.9402985" id="Path-129" stroke="#BB6F06" stroke-width="1.35"></path>
                    <path d="M119.902857,53.5522388 L114.074286,58.5970149 L117.571429,64.8059701 L123.4,57.4328358" id="Path-130" stroke="#BB6F06" stroke-width="1.35"></path>
                    <path d="M114.462857,59.3731343 L106.302857,56.6567164" id="Path-131" stroke="#BB6F06" stroke-width="1.35"></path>
                    <path d="M110.965714,67.5223881 L104.36,67.9104478 L91.5371429,58.5970149" id="Path-132" stroke="#BB6F06" stroke-width="1.35"></path>
                    <path d="M102.417143,73.3432836 L103.971429,67.1343284" id="Path-133" stroke="#BB6F06" stroke-width="1.35"></path>
                    <path d="M88.04,77.2238806 L84.5428571,70.6268657 L72.1085714,63.641791" id="Path-134" stroke="#BB6F06" stroke-width="1.35"></path>
                    <path d="M84.9314286,70.6268657 L87.6514286,66.358209 L79.1028571,59.761194" id="Path-135" stroke="#BB6F06" stroke-width="1.35"></path>
                    <path d="M67.0571429,68.6865672 L60.4514286,65.9701493 L55.7885714,60.5373134" id="Path-136" stroke="#BB6F06" stroke-width="1.35"></path>
                    <path d="M57.7314286,71.4029851 L60.84,65.5820896" id="Path-137" stroke="#BB6F06" stroke-width="1.35"></path>
                    <path d="M51.5142857,82.2686567 L43.3542857,54.7164179" id="Path-138" stroke="#BB6F06" stroke-width="1.35"></path>
                    <path d="M39.4685714,77.6119403 L38.6914286,71.4029851 L46.8514286,67.5223881 L42.1885714,63.2537313" id="Path-139" stroke="#BB6F06" stroke-width="1.35"></path>
                    <path d="M38.8857143,71.5970149 L34.4171429,60.9253731" id="Path-140" stroke="#BB6F06" stroke-width="1.35"></path>
                    <path d="M24.7028571,74.119403 L22.76,70.238806 C22.76,70.238806 21.5942857,64.4179104 29.3657143,61.3134328" id="Path-141" stroke="#BB6F06" stroke-width="1.35"></path>
                    <path d="M13.8228571,72.9552239 L23.1485714,69.4626866" id="Path-142" stroke="#BB6F06" stroke-width="1.35"></path>
                </g>
                <g id="Gravy" transform="translate(18.874286, 12.805970)" stroke="#5E1D09" stroke-width="1.35">
                    <path d="M79.1096012,0.542002364 C76.0010305,1.70618867 72.5038869,3.64647998 73.6696012,4.81065908 C74.8353155,5.97483818 77.5553156,5.19871878 78.7210298,5.19871878 C79.8867439,5.19871878 82.2181719,-0.622183945 79.1096012,0.542002364 Z" id="Path-143" fill="#9B3800"></path>
                    <path d="M28.9838869,0.153942663 C25.8753162,1.31812897 22.3781726,3.25842027 23.5438869,4.42259938 C24.7096012,5.58677848 27.4296013,4.81065908 28.5953155,4.81065908 C29.7610297,4.81065908 32.0924576,-1.01024365 28.9838869,0.153942663 Z" id="Path-143" fill="#9B3800"></path>
                    <path d="M5.66960121,44.7808083 C2.56103051,45.9449946 -0.936113071,47.8852859 0.229601215,49.0494651 C1.3953155,50.2136442 4.11531562,49.4375248 5.28102979,49.4375248 C6.44674395,49.4375248 8.77817192,43.616622 5.66960121,44.7808083 Z" id="Path-143" fill="#9B3800"></path>
                    <path d="M18.8810298,19.9449874 C15.7724591,21.1091737 12.2753155,23.0494651 13.4410298,24.2136442 C14.6067441,25.3778233 17.3267442,24.6017039 18.4924584,24.6017039 C19.6581725,24.6017039 21.9896005,18.7808011 18.8810298,19.9449874 Z" id="Path-143" fill="#9B3800" transform="translate(16.821702, 22.323088) rotate(66.000000) translate(-16.821702, -22.323088) "></path>
                    <path d="M24.3210298,12.9599128 C21.2124591,14.1240991 17.7153155,16.0643904 18.8810298,17.2285695 C20.0467441,18.3927486 22.7667442,17.6166292 23.9324584,17.6166292 C25.0981725,17.6166292 27.4296005,11.7957265 24.3210298,12.9599128 Z" id="Path-143" fill="#9B3800"></path>
                    <path d="M7.38285714,43.8507463 C10.1028576,40.7462694 11.2685714,43.8507463 11.2685714,39.9701493 C11.2685714,36.0895522 8.93714286,34.5373134 12.4342857,33.761194 C15.9314286,32.9850746 13.9885714,34.9253731 17.4857143,32.5970149 C20.9828571,30.2686567 17.0971429,30.6567164 18.2628571,28.7164179 C19.4285714,26.7761194 20.5942857,28.7164179 20.5942857,26 C20.5942857,23.2835821 18.6514286,21.7313433 20.9828571,21.7313433 C23.3142857,21.7313433 19.8171429,20.5671642 21.76,19.7910448 C23.7028571,19.0149254 22.9257143,21.3432836 23.7028571,17.4626866 C24.48,13.5820896 25.2571429,14.7462687 26.8114286,13.5820896 C28.3657143,12.4179104 26.4228571,12.8059701 26.4228571,10.8656716 C26.4228571,8.92537313 24.8685714,7.76119403 27.5885714,7.76119403 C30.3085714,7.76119403 27.2,6.59701493 30.3085714,5.82089552 C33.4171429,5.04477612 34.1942857,5.82089552 34.1942857,5.82089552 L30.6971429,8.53731343 L31.0857143,12.4179104 C31.0857143,12.4179104 47.4057143,15.1343282 49.3485714,16.2985075 C51.2914286,17.4626867 51.68,11.641791 51.68,11.641791 L45.0742857,7.76119403 C45.0742857,7.76119403 46.24,5.43283584 48.5714286,6.20895522 C50.9028571,6.98507461 52.0685714,8.92537297 53.2342857,8.92537313 C54.4,8.9253733 56.3428571,9.31343267 56.3428571,10.8656716 C56.3428571,12.4179106 55.9542857,13.5820896 55.9542857,13.5820896 L58.6742857,10.4776119 L61.3942857,9.31343284 C61.3942857,9.31343284 60.6171429,7.37313435 62.9485714,7.37313433 C65.28,7.37313431 65.28,8.92537313 65.28,8.92537313 C65.28,8.92537313 66.4457143,5.82089552 67.6114286,5.82089552 C68.7771429,5.82089552 69.5542857,7.76119405 70.72,7.76119403 C71.8857143,7.76119401 77.7142857,6.98507463 77.7142857,6.98507463 C77.7142857,6.98507463 80.8228571,8.53731327 79.2685714,10.4776119 C77.7142857,12.4179106 79.6571429,12.0298506 80.8228571,12.8059701 C81.9885714,13.5820897 83.1542857,16.686567 81.9885714,18.238806 C80.8228571,19.7910449 86.2628571,18.238806 86.2628571,18.238806 C86.2628571,18.238806 87.8171429,16.2985073 89.3714286,16.2985075 C90.9257143,16.2985076 92.0914286,17.8507463 92.0914286,17.8507463 L92.8685714,22.8955224 C92.8685714,22.8955224 110.354286,29.4925386 110.354286,31.0447761 C110.354286,32.5970136 110.742857,34.5373134 110.742857,34.5373134 C110.742857,34.5373134 108.022857,33.7611953 108.022857,35.7014925 C108.022857,37.6417897 112.297143,37.6417924 111.52,38.8059701 C110.742857,39.9701479 109.577143,39.5820909 109.577143,40.7462687 C109.577143,41.9104464 111.52,43.0746282 109.188571,43.0746269 C106.857143,43.0746255 106.08,42.2985075 106.08,42.2985075 C106.08,42.2985075 102.194286,38.4179118 101.417143,39.1940299 C100.64,39.9701479 99.0857143,41.1343284 99.0857143,41.1343284 C99.0857143,41.1343284 99.0857143,43.0746282 96.7542857,41.1343284 C94.4228571,39.1940285 96.3657143,41.9104478 96.3657143,41.9104478 C96.3657143,41.9104478 96.3657143,43.4626879 92.8685714,43.4626866 C89.3714286,43.4626853 87.04,43.0746282 87.04,43.0746269 C87.04,43.0746255 86.2628571,45.0149267 87.8171429,46.5671642 C89.3714286,48.1194017 90.1485714,48.507464 89.3714286,50.0597015 C88.5942857,51.611939 91.3142857,53.1641804 86.6514286,52.3880597 C81.9885714,51.611939 78.88,50.0597028 82.7657143,48.8955224 C86.6514286,47.731342 85.8742857,46.9552239 85.8742857,46.9552239 C85.8742857,46.9552239 82.3771429,45.4029864 81.6,46.5671642 C80.8228571,47.731342 79.6571429,48.5074627 79.6571429,48.5074627 C79.6571429,48.5074627 75.3828571,45.4029864 76.5485714,52.3880597 C77.7142857,59.373133 78.1028571,56.268658 78.88,62.8656716 C79.6571429,69.4626853 77.7142857,71.0149267 76.16,69.8507463 C75.2527058,69.171171 72.4941938,58.6179745 66.2742859,54.3283591 C61.838869,51.269434 58.6742875,53.843755 58.6742875,54.3283591 C58.6742875,55.4925369 55.9542862,94.6567168 55.9542862,94.6567168 C55.9542862,94.6567168 75.2114286,93.1044789 75.2114286,94.6567164 C75.2114286,96.2089539 77.1542857,96.2089565 74.4342857,98.5373134 C71.7142857,100.86567 67.6228578,103.194033 64.1257149,103.194032 C60.6285721,103.194031 49.9542857,100.925374 49.9542857,102.089552 C49.9542857,103.25373 46.5912361,102.905728 45.2914286,102.089552 C43.991621,101.273376 44.2971436,98.5373168 44.2971436,98.5373168 C44.2971436,98.5373168 43.1808279,96.2638447 44.2971436,95.1940322 C45.0616041,94.4614174 47.8079766,94.8751141 48.9600007,94.6567168 C51.7942864,94.1194014 48.96,57.0447761 48.96,57.0447761 L47.0171429,51.2238806 C47.0171429,51.2238806 47.7942857,50.0597028 44.2971429,51.2238806 C40.8,52.3880584 38.4685714,47.7313433 38.4685714,47.7313433 L35.36,48.8955224 C35.36,48.8955224 36.9142857,58.5970162 37.6914286,58.5970149 C38.4685714,58.5970136 42.3542857,61.3134328 42.3542857,61.3134328 C42.3542857,61.3134328 45.4628571,62.4776133 41.9657143,63.641791 C38.4685714,64.8059688 36.9142857,63.641791 36.9142857,63.641791 C36.9142857,63.641791 38.4685714,68.2985088 36.9142857,69.0746269 C35.36,69.850745 34.1942857,70.238806 34.1942857,70.238806 C34.1942857,70.238806 34.9714286,78.7761207 33.0285714,78.7761194 C31.0857143,78.7761181 27.9771429,72.9552252 27.9771429,71.0149254 C27.9771429,69.0746255 31.8628571,69.4626866 31.8628571,69.4626866 L34.1942857,65.9701493 C34.1942857,65.9701493 36.1371429,65.9701506 34.5828571,63.641791 C33.0285714,61.3134315 32.2514286,55.880597 32.2514286,55.880597 L30.6971429,53.1641791 L30.6971429,48.8955224 L28.3657143,48.119403 C28.3657143,48.119403 26.0342857,41.9104461 24.8685714,41.9104478 C23.7028571,41.9104494 24.8685714,49.2835834 24.8685714,49.2835821 C24.8685714,49.2835808 26.0342857,53.9402998 24.48,53.9402985 C22.9257143,53.9402972 21.76,53.9402985 21.76,53.9402985 L20.9828571,54.3283582 L15.1542857,48.5074627 C15.1542857,48.5074627 16.7085714,49.6716431 15.1542857,50.4477612 C13.6,51.2238793 12.8228571,54.3283595 12.0457143,52.7761194 C11.2685714,51.2238793 10.4914286,51.6119416 8.54857143,47.3432836 C6.60571429,43.0746255 4.66285668,46.9552232 7.38285714,43.8507463 Z" id="Path-144" fill="url(#linearGradient-3)"></path>
                </g>
                <g id="Cheese-curds" transform="translate(34.028571, 21.731343)" stroke="#FCEAA2" stroke-width="2.7" fill="#FCFCD1">
                    <path d="M4.66285714,28.7164179 C4.66285734,26.77612 3.88571429,27.1641791 3.88571429,26 C3.88571429,24.8358209 6.21714286,22.8955224 7.77142857,23.6716418 C9.32571429,24.4477612 9.32571429,24.835821 9.32571429,26.3880597 C9.32571429,27.9402984 8.16,28.3283583 7.38285714,28.3283582 C6.60571429,28.3283581 4.66285695,30.6567158 4.66285714,28.7164179 Z" id="Path-149"></path>
                    <path d="M8.16,29.1044776 C8.15999961,29.8805966 5.82857143,29.4925373 5.05142857,30.6567164 C4.27428571,31.8208955 3.88571429,32.2089552 3.88571429,32.9850746 C3.88571429,33.761194 3.49714286,33.3731343 2.33142857,34.1492537 C1.16571429,34.9253731 0.777142857,34.1492537 0.777142857,35.7014925 C0.777142857,37.2537313 -1.16571429,36.0895522 1.94285714,37.641791 C5.05142857,39.1940299 4.27428603,40.7462687 7.38285714,39.9701493 C10.4914283,39.1940299 7.38285745,44.6268657 11.2685714,38.8059701 C15.1542854,32.9850746 13.6000003,36.0895522 14.3771429,32.5970149 C15.1542854,29.1044776 19.8171432,31.8208955 15.5428571,28.3283582 C11.2685711,24.8358209 9.32571386,25.2238806 9.32571429,26.3880597 C9.32571472,27.5522388 8.16000039,28.3283586 8.16,29.1044776 Z" id="Path-150"></path>
                    <path d="M11.6571429,9.31343284 C10.4914282,11.2537309 7.77142857,12.4179104 10.4914286,12.4179104 C13.2114286,12.4179104 12.8228571,12.4179104 14.3771429,11.641791 C15.9314286,10.8656716 13.6,7.76119403 15.9314286,12.4179104 C18.2628572,17.0746269 17.4857143,16.2985075 17.4857143,18.238806 C17.4857143,20.1791045 18.6514286,22.119403 18.6514286,22.119403 C18.6514286,22.119403 20.9828579,24.0597015 22.1485714,16.2985075 C23.314285,8.53731343 25.2571429,16.2985075 25.2571429,16.2985075 C25.2571429,16.2985075 26.4228579,17.8507463 27.5885714,17.0746269 C28.754285,16.2985075 29.9200007,13.1940299 31.0857143,14.7462687 C32.2514278,16.2985075 33.0285707,16.2985075 33.8057143,15.5223881 C34.5828579,14.7462687 35.7485714,13.5820896 35.7485714,13.5820896 C35.7485714,13.5820896 35.7485707,14.358209 37.3028571,14.358209 C38.8571436,14.358209 41.9657165,13.1940299 41.9657143,12.4179104 C41.9657121,11.641791 41.5771421,10.0895522 42.7428571,10.0895522 C43.9085722,10.0895522 44.2971421,8.53731343 44.2971429,8.53731343 C44.2971436,8.53731343 49.7371421,10.8656716 42.7428571,6.20895522 C35.7485722,1.55223881 38.08,3.88059701 38.08,3.88059701 L34.1942857,4.65671642 L34.1942857,6.20895522 C34.1942857,6.20895522 33.0285722,7.76119403 30.3085714,6.98507463 C27.5885707,6.20895522 20.2057143,0.776119403 19.4285714,2.71641791 C18.6514286,4.65671642 14.3771428,4.65671638 14.3771429,5.82089552 C14.3771429,6.98507467 12.8228575,7.37313478 11.6571429,9.31343284 Z" id="Path-151"></path>
                    <path d="M43.52,11.2537313 C41.9657144,13.1940298 42.3542857,14.7462687 43.9085714,14.7462687 C45.4628571,14.7462687 43.1314286,14.7462687 41.5771429,16.6865672 C40.0228572,18.6268657 36.9142857,21.7313433 39.2457143,23.6716418 C41.5771429,25.6119403 41.5771428,25.6119403 42.7428571,25.6119403 C43.9085715,25.6119403 44.2971432,26.7761194 45.0742857,26.7761194 C45.8514282,26.7761194 46.2400003,20.9552239 48.1828571,21.7313433 C50.125714,22.5074627 50.1257139,27.5522388 52.0685714,26 C54.011429,24.4477612 53.2342853,22.119403 54.7885714,22.8955224 C56.3428576,23.6716418 55.9542853,27.5522388 57.8971429,27.5522388 C59.8400004,27.5522388 60.228571,27.9402985 61.3942857,27.9402985 C62.5600004,27.9402985 61.3942868,26 62.56,24.8358209 C63.7257132,23.6716418 67.2228553,23.0895522 67.2228571,21.3432836 C67.222859,19.5970149 64.8914267,16.2985075 64.8914286,17.0746269 C64.8914305,17.8507463 61.7828582,17.8507463 61.7828571,16.2985075 C61.7828561,14.7462687 63.7257124,13.5820896 63.7257143,12.8059701 C63.7257162,12.0298507 60.2285714,12.4179104 60.2285714,12.4179104 C60.2285714,12.4179104 59.8399996,7.37313433 55.9542857,7.37313433 C52.0685718,7.37313433 48.1828575,7.76119403 47.4057143,8.92537313 C46.6285711,10.0895522 45.0742856,9.31343292 43.52,11.2537313 Z" id="Path-152"></path>
                    <path d="M41.1885714,5.04477612 C41.1885716,0.77611932 41.9657143,-0.388059701 44.2971429,0.388059701 C46.6285714,1.1641791 48.5714286,1.55223887 50.5142857,1.55223881 C52.4571429,1.55223874 54.0114286,0.500195807 54.7885714,1.55223881 C55.5657143,2.60428181 51.68,4.65671639 53.2342857,4.65671642 C54.7885714,4.65671644 55.5657143,5.4328358 55.5657143,5.43283582 C55.5657143,5.43283584 56.3428571,5.8208955 55.5657143,6.98507463 C54.7885714,8.14925376 48.5714286,7.3731343 47.4057143,8.53731343 C46.24,9.70149256 42.7428571,8.53731341 42.7428571,6.59701493 C42.7428571,4.65671644 41.1885712,9.31343292 41.1885714,5.04477612 Z" id="Path-153"></path>
                    <path d="M73.44,17.8507463 C73.4399994,20.1791052 68,19.7910448 73.44,21.3432836 C78.88,22.8955224 79.2685712,20.9552239 80.4342857,19.4029851 C81.6000003,17.8507463 83.931429,17.0746269 83.9314286,18.238806 C83.9314281,19.4029851 81.9885719,20.9552238 83.9314286,20.9552239 C85.8742852,20.955224 83.931429,19.402985 88.2057143,22.119403 C92.4799995,24.835821 85.0971433,25.6119402 88.2057143,25.6119403 C91.3142852,25.6119404 94.0342862,26.3880596 94.8114286,24.8358209 C95.588571,23.2835822 96.7542862,23.2835821 93.6457143,20.1791045 C90.5371424,17.0746269 89.7600005,15.1343283 88.5942857,13.5820896 C87.428571,12.0298508 86.2628569,8.92537313 83.9314286,10.4776119 C81.6000003,12.0298507 79.2685712,8.14925374 79.2685714,10.8656716 C79.2685717,13.5820895 79.6571426,13.9701493 78.4914286,14.7462687 C77.3257146,15.5223881 73.4400006,15.5223873 73.44,17.8507463 Z" id="Path-154"></path>
                    <path d="M64.8914286,28.7164179 C63.725714,30.656717 60.2285714,29.880597 63.3371429,31.8208955 C66.4457143,33.761194 68.0000003,34.1492537 69.5542857,32.9850746 C71.1085712,31.8208955 74.2171431,31.0447761 72.6628571,29.880597 C71.1085712,28.7164179 66.0571431,26.7761188 64.8914286,28.7164179 Z" id="Path-155"></path>
                    <path d="M20.2057143,27.5522388 C20.2057146,28.7164175 17.4857143,29.880597 20.2057143,29.880597 C22.9257143,29.880597 24.0914287,28.3283582 26.0342857,28.3283582 C27.9771428,28.3283582 25.257143,25.2238806 29.5314286,29.1044776 C33.8057142,32.9850746 29.1428572,33.7611936 31.4742857,33.761194 C33.8057142,33.7611944 34.9714287,34.1492537 34.9714286,32.9850746 C34.9714285,31.8208955 35.3600001,31.0447761 36.5257143,31.0447761 C37.6914285,31.0447761 38.857143,31.4328358 38.8571429,30.6567164 C38.8571428,29.880597 38.0800001,26 35.7485714,25.2238806 C33.4171428,24.4477612 31.6901587,22.119403 30.3085714,22.8955224 C28.9269841,23.6716418 20.205714,26.3880601 20.2057143,27.5522388 Z" id="Path-156"></path>
                </g>
            </g>
            <path d="M110.312401,42.1045569 C110.312401,42.1045569 78.3684273,40.4131483 69.7631103,47.9828639 C66.8122172,50.5782537 65.5302468,53.0854207 66.1542963,55.0417084 C66.7957948,57.0523661 69.4131087,58.63422 72.6698682,58.9758266 C75.1178262,59.2302364 78.8426231,58.4064825 82.7891215,57.5304101 C88.870527,56.181423 96.1755698,56.2604139 102.312401,57.5304109" id="arm" stroke="#000000" stroke-width="3" stroke-linecap="round" fill="#FFD200"></path>
            <text id="MTL" transform="translate(50.000000, 133.000000) rotate(5.000000) translate(-50.000000, -133.000000) " font-family="AlfaSlabOne-Regular, Alfa Slab One" font-size="6" font-weight="normal" fill="#341907">
                <tspan x="42" y="135">MTL</tspan>
            </text>
        </g>
    </g>
</svg>