<?xml version="1.0" encoding="UTF-8" standalone="no"?>
<svg width="173px" height="191px" viewBox="0 0 173 191" version="1.1" xmlns="http://www.w3.org/2000/svg" xmlns:xlink="http://www.w3.org/1999/xlink">
    <!-- Generator: Sketch 3.6.1 (26313) - http://www.bohemiancoding.com/sketch -->
    <title>Wapu Bagel</title>
    <desc>Created with Sketch.</desc>
    <defs>
        <radialGradient cx="45.3655338%" cy="50%" fx="45.3655338%" fy="50%" r="49.8558906%" id="radialGradient-1">
            <stop stop-color="#E69866" offset="0%"></stop>
            <stop stop-color="#C67509" offset="15.4615753%"></stop>
            <stop stop-color="#F5B739" offset="59.8632812%"></stop>
            <stop stop-color="#B58A11" offset="100%"></stop>
        </radialGradient>
    </defs>
    <g id="Page-1" stroke="none" stroke-width="1" fill="none" fill-rule="evenodd">
        <g id="Wapu-Bagel">
            <g id="wapuu-original" transform="translate(0.294673, 0.192694)">
                <g id="Page-1">
                    <g id="Artboard">
                        <g id="WAPU">
                            <path d="M158.617425,10.1733121 C156.357298,10.1733121 153.788225,10.1866481 151.056981,10.1999841 C147.973683,10.2153718 144.682026,10.2317853 141.396527,10.2317853 C136.114685,10.2317853 128.718465,10.193829 123.455098,9.89223037 C115.025295,3.76690551 105.314548,0.497535178 94.5691914,0.173367928 C71.2833101,-0.539594852 50.6660624,9.52190004 39.5019362,26.817659 C35.728899,30.4040158 28.6303334,34.3914779 26.71097,34.817204 C23.4932136,35.5322185 21.4086002,38.3491909 21.756549,41.5139249 C22.00699,43.7954059 23.6297245,46.3589942 27.2508551,47.551027 C26.8331113,47.9613654 26.434869,48.3922207 26.0643395,48.8384635 C23.610223,51.793925 24.5838254,58.1535698 25.174004,61.2998386 C25.2930661,61.9307337 25.4583161,62.5339311 25.6687276,63.1073787 C24.4708657,65.1453343 26.7520256,66.8073041 25.6687279,66.8073041 C22.705328,64.8073041 21.3648261,73.0246107 20.4712113,74.6316378 C19.5823761,76.2300696 19.6236505,78.6907953 18.705328,83.8073041 C17.7991837,88.8559612 15.9262599,96.5628932 16.1031512,97.8656825 C15.2676636,97.7210381 14.4280704,97.6471775 13.5884772,97.6471775 C9.55062926,97.6471775 5.80735738,99.3972702 3.32142249,102.448135 C0.57580903,105.819064 -0.386951879,110.328682 0.610706547,115.146054 C2.64194731,124.958268 17.5144479,141.500031 29.3734453,144.345727 C30.5414858,144.624757 31.6571798,144.767349 32.6887092,144.767349 C35.8613042,144.767349 38.4816971,143.430672 40.0695342,141.003521 C40.5734953,140.232085 40.9378664,139.41346 41.1903603,138.57637 C49.283505,144.154919 58.6391188,147.609968 68.5500134,148.613245 C70.6972371,155.615668 76.4625122,156.78308 80.0600356,156.78308 C85.4835205,156.78308 90.1690252,154.579564 93.5099492,150.517215 C93.8117101,150.521318 94.1144973,150.524395 94.4183111,150.524395 C96.7112833,150.524395 99.5605628,150.367441 102.820402,149.864777 C92.3860439,161.567625 77.3123694,168.302302 66.2129063,168.304354 C61.5315069,168.304354 55.2468749,167.111295 51.8700267,161.434265 C47.4021184,153.923022 40.2399161,149.25645 33.1803537,149.25645 C25.7646314,149.25645 20.6121157,154.489289 20.3606483,162.276484 C20.2241374,166.491684 22.4339714,171.076189 26.7520259,175.532463 C34.0158414,183.030369 48.101095,190.595981 63.1973504,190.595981 C66.5331423,190.595981 69.8022184,190.222573 72.9132295,189.486016 C99.6652553,183.153471 123.634718,161.746122 130.607036,138.200911 C156.141755,118.703687 154.117698,65.1032474 145.656077,41.2041195 C145.068978,39.5453269 144.434664,37.9203873 143.754162,36.33443 C144.783639,36.4534278 145.801825,36.512927 146.80359,36.512927 C149.142749,36.512927 151.421352,36.1846564 153.577813,35.5383735 C166.85016,31.5591181 172.846375,21.7120248 172.721154,16.3088954 C172.655465,13.4570443 170.968067,11.2032612 168.424654,10.5672369 C167.357201,10.3015428 165.61643,10.1733121 158.617425,10.1733121 Z" id="Fill-1" fill="#000000"></path>
                            <path d="M29.760397,120.721525 C28.4291595,118.274883 26.9819389,115.75438 25.5624311,113.489313 C26.7797386,116.013919 28.1817977,118.431838 29.760397,120.721525" id="Fill-2" fill="#005683"></path>
                            <path d="M103.485413,59.6441195 C97.9952125,58.5095341 91.4426907,59.9621316 85.6620195,61.2434131 C81.2813549,62.2159149 77.4980534,63.0571082 74.5543454,62.745251 C70.0330639,62.2692588 66.4488837,59.8913485 65.4276182,56.6845545 C64.7081134,54.4256423 64.9051818,50.8054327 69.9355562,46.38096 C72.028381,44.5395671 74.5327908,43.0007984 77.2784044,41.7502925 C73.3185625,41.7564474 69.4059352,40.99527 65.6452146,39 C60.7883014,45.7418581 51.4612665,49.6259097 47.6677013,47.9424969 C46.8250289,47.5680633 45.8838224,46.9258836 45.0144635,46.0303206 C45.7750241,47.1649059 46.5047929,48.4769626 46.8198967,50.0106018 C47.4593426,53.1199404 46.3703348,56.446758 43.9059543,58.9087877 C41.7607833,61.0538313 39.0582785,62.2838203 36.4933111,62.2838203 C34.6991682,62.2838203 33.1677829,61.6601059 32.0202705,60.5706577 C31.3040611,61.7363337 28.0917745,64.7373937 27.7053275,66.8073063 C27.1473239,69.7961221 29.3998542,71.7274483 27.7053275,70.8073044 C25.1946523,69.4439842 23.6090881,77.6073154 22.8372517,84.8073044 C22.7517565,85.6048363 20.7053275,87.8073044 20.7053275,94.8073044 C20.7053275,99.651348 21.6476569,99.4715541 22.8372516,103.941164 C27.9302363,108.136873 36.3189834,124.804814 38.1490504,128.986162 C38.2486111,129.214925 38.3615146,129.504214 38.4774977,129.838639 C42.1494227,133.231995 40.5139392,132.519017 45.0144634,134.807304 C45.6245755,135.117515 54.0822196,139.128151 54.7053261,139.415771 C55.2772662,139.679774 58.1240557,141.546569 58.7053261,141.807304 C63.9249591,144.148634 65.2476344,143.673582 71.1600485,144.129696 C71.0019834,142.050307 71.0728047,139.83448 71.1456789,137.646351 C71.2339493,134.965816 71.3263249,132.192955 70.9763233,129.915578 C70.6879056,128.041358 70.2065251,126.0307 69.6964055,123.90207 C67.7965438,115.965102 65.6411088,106.968435 73.2354243,101.908964 C74.6908561,100.938513 76.2735611,100.446108 77.9373517,100.446108 C84.7608426,100.446108 90.9633631,108.669287 94.1636705,114.921817 C98.5217545,107.871179 105.683957,103.400543 114.201004,102.537807 C118.513926,102.099771 122.817611,102.658857 126.364841,103.971939 C127.61602,99.4233394 127.705327,100.578513 127.705327,95.8073044 C127.705327,92.9612512 127.705327,88.8073044 126.364843,84.8073044 C125.024358,80.8073044 126.463424,75.9403571 125.568356,73.2499113 C117.33049,65.8689514 111.651432,61.3326615 103.485413,59.6441195 Z" id="Fill-3" fill="url(#radialGradient-1)"></path>
                            <g id="Group-4" transform="translate(27.000000, 98.000000)" font-size="8" font-family="AlfaSlabOne-Regular, Alfa Slab One" letter-spacing="2.40615368" fill="#733600" font-weight="normal">
                                <text id="WPMTL">
                                    <tspan x="7" y="9">WPMTL</tspan>
                                </text>
                            </g>
                            <path d="M61.705327,103.807304 C65.0361885,106.460058 67.9109055,109 72.5,109 C83.2695526,109 92,100.269553 92,89.5 C92,87.2806316 91.3882972,83.7949187 90.7053261,81.8073053 C88.074159,74.1499647 81.0501842,70 72.5,70 C61.7304474,70 53,78.7304474 53,89.5 C53,95.6804581 57.2194204,100.234653 61.705327,103.807304 Z" id="Oval-2" stroke="#000000" stroke-width="3" fill="#FFD200"></path>
                            <path d="M72.6190387,107.959542 C71.1643038,108.047427 69.98053,107.969107 68.5347633,107.689308 C68.0985349,103.631624 67.8173246,98.5629562 70.0074341,89.7277624 C73.9860154,99.3449587 78.368156,106.39733 78.399544,106.436191 C77.6545609,106.768004 75.3882236,107.777194 72.6190387,107.959542 M65.9468596,106.934807 C54.5632869,102.10648 52.473747,90.6610237 56.293467,81.8503424 C56.4388764,90.569551 59.054965,97.3678315 65.9468596,106.934807 M81.3551348,104.782507 C83.1609022,97.5190904 86.162614,90.5755296 87.928666,83.3013516 C88.2694493,81.895182 88.5647523,79.7070097 88.0337196,77.2671378 C93.2947224,84.937698 92.6906647,96.8518773 81.3551348,104.782507 M57.8942519,78.9273986 C63.0329058,71.5456056 72.859893,65.5418828 83.6458138,72.9147078 C83.5734293,72.9117185 76.7314992,73.2046706 81.7042455,80.0705093 C84.3920781,83.7808364 84.5631104,86.7575876 82.4370579,92.8109329 C81.6696548,95.7954564 81.4377684,96.6964333 80.7523584,99.7694402 C77.4707173,92.4492268 74.7924933,86.217121 72.6773306,78.2476303 C74.5369058,77.9929414 76.6437412,77.7041744 75.5611776,76.5873696 C75.4247361,76.4468722 65.6291369,77.3538277 65.5356135,77.3687743 C64.7835842,77.4883466 64.6516267,78.3145907 64.6503457,78.3223631 C64.572196,78.9746297 64.6990289,78.9680533 66.8212379,78.8484809 C67.3804556,81.6620161 67.6354026,82.94682 69.0190342,87.053529 C68.0203853,90.9294635 66.9865052,94.9375254 66.844939,101.143923 C62.3814461,92.8521853 60.5948957,87.0929877 60.2541124,79.8935425 C60.8876364,79.5342278 61.7338295,79.6753231 62.2936879,79.1402372 C62.6754677,78.7749441 62.8612331,77.9510912 62.3852894,77.8554333 C60.6973871,77.5158481 59.4092004,78.6320551 57.8942519,78.9273986 M60.4866394,105.496951 C75.6233129,118.092692 94.3241188,101.817713 93.6784241,86.7169331 C93.4730883,81.924086 92.477197,79.9179356 89.7053264,76.8073053 C85.7064459,72.3197083 78.9477532,67.7684436 73.4037371,68.0170284 C56.517026,69.3179744 45.5517456,93.0680133 60.4866394,105.496951 Z" id="Fill-5" fill="#000000"></path>
                            <path d="M91.9713794,122.946585 C91.954957,122.881957 91.9405875,122.81938 91.924165,122.753726 C91.7773903,122.168994 91.6152194,121.566822 91.4325205,120.941056 C89.9083203,115.454833 82.6599008,104.543938 77.1235124,104.543938 C76.2726289,104.543938 75.4792235,104.797322 74.698135,105.317426 C69.8504591,108.54884 70.828616,114.394109 72.8762794,122.942481 C73.3822931,125.056749 73.9057559,127.243853 74.2198337,129.285285 C74.6293663,131.9412 74.5298056,134.908972 74.4343508,137.777236 C74.2865495,142.231459 74.1336162,146.838532 76.0550325,148.823543 C76.895652,149.692435 78.2053354,150.115083 80.0600356,150.115083 C80.5968416,150.115083 81.1018294,150.075075 81.5903944,150.013524 C81.739222,149.995059 81.8798386,149.967361 82.0235342,149.943767 C82.3642981,149.888371 82.6937717,149.820665 83.0109287,149.738598 C83.151545,149.701667 83.2921616,149.663711 83.4286724,149.621651 C83.7591724,149.521118 84.0753031,149.405198 84.3791166,149.276967 C84.4684132,149.240037 84.5628417,149.207209 84.6500855,149.168227 C85.0401167,148.990756 85.4116726,148.79482 85.7606476,148.579392 C85.7945188,148.557849 85.8253108,148.533229 85.8591819,148.511686 C86.1681276,148.314724 86.4596245,148.105451 86.7357253,147.884894 C86.8168109,147.820266 86.8937906,147.753586 86.9728233,147.686906 C87.199657,147.495073 87.4162271,147.296059 87.6215066,147.091916 C87.6902752,147.023184 87.7610966,146.954452 87.8278123,146.884695 C88.0577256,146.642595 88.2753217,146.394341 88.4785485,146.141983 C88.5021557,146.112233 88.5288418,146.084535 88.5514227,146.054786 C88.7782565,145.767549 88.9866152,145.475183 89.1806043,145.181791 C89.2267924,145.113059 89.2668218,145.043302 89.3099303,144.975596 C89.4474677,144.758117 89.5788466,144.540637 89.6999616,144.32521 C89.7584663,144.221599 89.8138917,144.120041 89.8682906,144.017456 C89.9627194,143.838959 90.0520158,143.662513 90.1361806,143.487094 C90.1885269,143.377328 90.2439523,143.266537 90.2932194,143.157797 C90.3630144,143.004946 90.4235717,142.85825 90.4851556,142.710529 C90.6144819,142.401749 90.7304647,142.103228 90.8269461,141.828301 C90.8331046,141.812913 90.8392627,141.7965 90.8443949,141.782138 C90.912137,141.585176 90.9737209,141.398472 91.0270935,141.225104 C91.2600859,140.467004 91.3658047,139.935616 91.3812009,139.846367 C91.3965967,139.758145 91.418151,139.665818 91.4458637,139.581699 C92.9844338,134.714061 93.6023251,130.619911 92.3490938,124.593067 C92.2382428,124.059627 92.1109694,123.509774 91.9713794,122.946585" id="Fill-6" fill="#FFD200"></path>
                            <path d="M141.345207,16.3878855 C135.215561,16.3878855 126.436783,16.3365932 120.991744,15.8954796 C120.517548,15.8575233 120.098778,15.8575233 119.827809,15.8800919 C120.22913,16.5356073 121.213446,17.6835287 122.785887,18.9935337 L123.182076,19.3289852 C133.878165,28.4436245 141.929228,30.3578525 146.799484,30.3588786 L146.801537,30.3588786 C148.541281,30.3588786 150.224573,30.1178048 151.808304,29.6428383 C159.322561,27.390081 163.93827,22.7358189 165.750889,19.1320229 C166.427284,17.7850874 166.564822,16.9008084 166.564822,16.4853408 C165.54253,16.3817304 162.88416,16.3294123 158.641033,16.3294123 C156.382958,16.3294123 153.814911,16.3417225 151.083667,16.3560843 C147.976762,16.371472 144.657392,16.3878855 141.345207,16.3878855" id="Fill-7" fill="#FFD200"></path>
                            <path d="M8.09827671,106.334039 C6.54328442,108.243138 6.02598005,110.928802 6.64079218,113.898625 C8.20912765,121.475522 21.6836748,136.170762 30.8104018,138.359917 C31.5073258,138.52713 32.1395866,138.612275 32.6887092,138.612275 C34.1112965,138.612275 34.6409174,138.055241 34.9159919,137.63567 C36.0286069,135.933792 35.3973724,132.23254 34.5146706,130.215728 C31.9876797,124.443294 23.9797261,109.310017 19.9326405,106.197602 C17.8952414,104.630109 15.7018298,103.802252 13.5884772,103.802252 C11.3786433,103.802252 9.42746156,104.701919 8.09827671,106.334039" id="Fill-8" fill="#FFD200"></path>
                            <path d="M29.2276968,57.1642275 C29.6988134,59.6734459 31.3646565,60.2007306 32.6794718,60.2007306 C34.4079252,60.2007306 36.3652653,59.2764438 37.9151257,57.7263909 C39.6446057,55.9978407 40.4205621,53.7173858 39.9905015,51.6236346 C39.7236381,50.3238879 39.0133712,49.327792 38.0906398,48.9595134 C37.9397592,48.8989884 37.7324268,48.8671872 37.4901972,48.8671872 C35.8325651,48.8671872 32.8046923,50.3587669 30.803217,52.7695042 C30.0724219,53.6507058 28.8941176,55.3925918 29.2276968,57.1642275" id="Fill-9" fill="#FFD200"></path>
                            <path d="M123.885159,138.957985 C120.806992,140.796301 117.791436,142.259157 114.898021,143.404 C105.401791,160.769517 84.7732533,174.112692 66.8749328,174.452247 C57.63017,174.604072 50.4679677,171.1203 46.5768947,164.580533 C42.2116257,157.242659 35.5441475,154.5334 31.2065912,155.649521 C28.2998334,156.398388 26.6339902,158.821436 26.5159544,162.474472 C26.4122883,165.679214 29.2430927,169.954939 34.0876893,173.912652 C42.7976987,181.02997 57.7441002,186.752137 71.4937217,183.496103 C95.2630362,177.870365 116.612105,159.507726 123.885159,138.957985" id="Fill-10" fill="#FF8800"></path>
                            <path d="M28.0473396,40.8255824 C27.9036439,40.8573836 27.8595088,40.9066243 27.8584825,40.9066243 C27.872852,40.9014951 27.9642014,41.0738371 28.3049654,41.3036267 C28.9290152,41.7252492 31.4724283,42.910101 38.3595558,41.0707596 C38.1481179,39.4745435 38.2281769,37.483377 38.9209953,35.1177767 C34.8964905,37.9152581 30.3577606,40.3126597 28.0473396,40.8255824" id="Fill-11" fill="#FFD200"></path>
                            <path d="M32.6794718,63.278268 L32.6794718,63.278268 C29.3252046,63.278268 26.8423489,61.1527157 26.199824,57.7304941 C25.7820802,55.5023572 26.5754855,53.0423792 28.4332651,50.803984 C30.8463256,47.8987887 34.655287,45.7896498 37.4901972,45.7896498 C38.1286165,45.7896498 38.7157159,45.8942862 39.2340465,46.101507 C41.119539,46.8555038 42.529809,48.6886899 43.0060574,51.0050495 C43.6455033,54.1143881 42.5564955,57.4412057 40.092115,59.9032354 C37.946944,62.048279 35.2444392,63.278268 32.6794718,63.278268 L32.6794718,63.278268 L32.6794718,63.278268 Z M37.4901972,48.8671872 C35.8325651,48.8671872 32.8046923,50.3587669 30.803217,52.7695042 C30.0724219,53.6507058 28.8941176,55.3925918 29.2276968,57.1642275 C29.6988134,59.6734459 31.3646565,60.2007306 32.6794718,60.2007306 C34.4079252,60.2007306 36.3652653,59.2764438 37.9151257,57.7263909 C39.6446057,55.9978407 40.4205621,53.7173858 39.9905015,51.6236346 C39.7236381,50.3238879 39.0133712,49.327792 38.0906398,48.9595134 C37.9397592,48.8989884 37.7324268,48.8671872 37.4901972,48.8671872 L37.4901972,48.8671872 L37.4901972,48.8671872 Z" id="Fill-12" fill="#000000"></path>
                            <path d="M139.850773,43.2578627 C138.129504,38.3963799 136.015125,33.9719071 133.56614,29.9947032 C129.885479,28.2025508 125.746017,25.5579205 121.18368,21.670991 L120.815203,21.3570822 C115.77046,17.1572698 116.466357,15.2379124 116.694217,14.6070173 C116.876916,14.1012754 117.201258,13.7063248 117.648767,13.4108812 C110.80988,9.03359749 102.958965,6.58490374 94.3834136,6.3263906 C73.0723211,5.68113363 54.3949648,14.7444806 44.4111957,30.5702026 C41.6820048,34.8982459 40.7387454,38.8313384 41.6861103,41.9468317 C42.3758495,44.2160027 43.9585545,45.6152563 45.1040141,46.1240758 C47.0439054,46.9878379 59.3863361,42.7059577 62.9725693,36.1887599 C63.1768224,35.8204813 63.5216919,35.5496577 63.9291719,35.4429699 C64.3387045,35.336282 64.7708177,35.3998844 65.1290304,35.6204412 C73.5495961,40.7989104 83.0150343,38.4312586 91.2241618,35.8061192 C92.0370689,35.548632 92.900269,35.9938491 93.1599476,36.8032412 C93.2985113,37.2382001 93.2287163,37.6864946 93.0141992,38.0516957 C98.4397367,37.9091031 103.883749,38.7359348 108.681131,40.6286201 C109.471458,40.9404773 109.859436,41.8339889 109.547411,42.6249158 C109.235386,43.415843 108.340368,43.8046383 107.550041,43.4907297 C95.7464696,38.8354417 79.761354,41.1158968 71.156037,48.6856124 C68.2051439,51.2810022 66.9231735,53.7881692 67.547223,55.7444569 C68.1887215,57.7551147 70.8060354,59.3369685 74.0627949,59.6785752 C76.5107529,59.9329849 80.2355497,59.109231 84.1820482,58.2331586 C90.2634537,56.8841715 97.1587926,55.3546356 103.295624,56.6246325 C113.241416,58.6814532 119.840126,64.6446943 129.826974,73.6711109 L131.044281,74.7708175 C131.67449,75.340162 131.723757,76.3136897 131.154106,76.9435588 C130.850292,77.2810622 130.431522,77.4513526 130.011726,77.4513526 C129.66275,77.4513526 129.317881,77.3241477 129.032542,77.0871772 C130.017884,81.2767311 130.523898,85.5781023 130.523898,89.9317916 C130.523898,95.1512948 129.799261,100.308221 128.382833,105.27434 C129.968617,106.17093 131.300881,107.248067 132.25543,108.483186 C132.775814,109.155115 132.65162,110.122487 131.97933,110.640539 C131.308066,111.160643 130.33812,111.037542 129.819789,110.364587 C127.160393,106.924926 120.387196,104.920424 113.69611,105.594404 C108.823801,106.087836 99.9454619,108.420609 94.9140612,118.411321 C95.1059974,118.924244 95.2650891,119.39921 95.3810719,119.816729 C98.0189138,128.852379 97.394864,134.334498 95.4005735,140.688587 C95.2045317,141.760596 94.8247645,143.038799 94.2561402,144.370347 C101.03139,144.389838 112.990975,142.902362 125.717278,134.144717 C149.812987,117.562946 147.693476,65.4058721 139.850773,43.2578627" id="Fill-13" fill="#FFD200"></path>
                            <path d="M167.677437,13.5534738 C166.933298,13.3667699 165.16071,13.2518751 158.641033,13.2518751 C156.378852,13.2518751 153.805674,13.2641853 151.068271,13.2785471 C147.965472,13.2939348 144.653287,13.3103483 141.345207,13.3103483 C135.67744,13.3103483 127.732097,13.266237 122.360958,12.9102685 C114.400219,6.92240697 104.950176,3.56583974 94.4757895,3.24885341 C72.142405,2.56461432 52.5166573,12.1070313 41.9201288,28.7575333 C37.8443044,32.7778229 30.0108382,37.2361483 27.3801812,37.8219062 C26.1618473,38.0917037 25.2432215,38.9093026 24.9188798,40.0069575 C24.5924854,41.1179486 24.9435134,42.3335756 25.8559808,43.2578627 C26.6924948,44.1011078 28.4332651,45.1556772 31.9158321,45.1556772 C33.7890076,45.1556772 36.1743554,44.8438203 39.1858058,44.0375054 C40.3168959,46.600068 42.2660249,48.2311629 43.853862,48.9369446 C47.6474272,50.6203574 59.9744621,45.7363059 64.8313753,38.9944477 C68.5920959,40.9897177 72.5047232,41.7508952 76.4645651,41.7447402 C73.7189515,42.9952462 71.2145417,44.5340149 69.1217169,46.3754077 C64.0913425,50.7998805 63.8942741,54.42009 64.6137789,56.6790022 C65.6350444,59.8857962 69.2192246,62.2637065 73.7405061,62.7396988 C76.6842141,63.051556 80.4675156,62.2103626 84.8481802,61.2378608 C90.6288514,59.9565794 97.1813732,58.5039819 102.671574,59.6385672 C110.837593,61.3271092 116.516651,65.8633991 124.754517,73.2443591 C126.539423,78.6095324 127.444705,84.2229602 127.444705,89.9317916 C127.444705,94.7030002 126.80218,99.4177872 125.551002,103.966387 C122.003772,102.653305 117.700087,102.094219 113.387164,102.532255 C104.870117,103.394991 97.7079152,107.865627 93.3498313,114.916264 C90.1495238,108.663735 83.9470034,100.440555 77.1235124,100.440555 C75.4597218,100.440555 73.8770168,100.932961 72.421585,101.903411 C64.8272695,106.962882 66.9827045,115.95955 68.8825662,123.896518 C69.3926858,126.025148 69.8740663,128.035806 70.162484,129.910026 C70.5124856,132.187403 70.42011,134.960264 70.3318397,137.640799 C70.1552992,142.950577 69.9726007,148.439877 73.1041394,151.67642 C74.7361117,153.362911 77.076298,154.218466 80.0600356,154.218466 C86.2307378,154.218466 90.2203451,151.005517 92.6118513,147.414031 C93.1568684,147.434548 93.733704,147.44891 94.363912,147.44891 C98.3350442,147.44891 103.933017,146.951375 110.37674,144.98688 C100.748105,159.941659 82.6352673,171.075163 66.8164281,171.375736 C61.1435289,171.498837 53.4547846,170.119075 49.2229474,163.006886 C44.083775,154.368239 35.8808059,151.265056 30.4388459,152.669439 C26.1526097,153.772223 23.6020118,157.311391 23.4388146,162.374965 C23.3023037,166.593243 26.4738722,171.667076 32.1385603,176.294666 C39.586101,182.378957 51.3301418,187.503056 63.3040955,187.503056 C66.2765429,187.503056 69.2643861,187.187096 72.2039889,186.491572 C98.3186217,180.3088 121.645559,159.273834 127.925059,136.34413 C142.04829,126.259041 146.543911,106.212989 147.816644,91.0827907 C149.438352,71.7948391 146.442298,52.6484546 142.753425,42.2309912 C141.4499,38.5492307 139.918515,35.1188027 138.20751,31.9130347 C141.637731,33.0630078 144.52704,33.4364157 146.799484,33.4364157 L146.801537,33.4364157 C148.840989,33.4364157 150.821936,33.1512304 152.693059,32.5911188 C164.703963,28.9893745 169.729205,20.1137572 169.642988,16.3807046 C169.609117,14.9096418 168.87319,13.8519949 167.677437,13.5534738 L167.677437,13.5534738 L167.677437,13.5534738 Z M38.3595558,41.0707596 C31.4724283,42.910101 28.9290152,41.7252492 28.3049654,41.3036267 C27.9642014,41.0738371 27.872852,40.9014951 27.8584825,40.9066243 C27.8595088,40.9066243 27.9036439,40.8573836 28.0473396,40.8255824 C30.3577606,40.3126597 34.8964905,37.9152581 38.9209953,35.1177767 C38.2281769,37.483377 38.1481179,39.4745435 38.3595558,41.0707596 L38.3595558,41.0707596 L38.3595558,41.0707596 Z M91.4458637,139.581699 C91.418151,139.665818 91.3965967,139.758145 91.3812009,139.846367 C91.3062737,140.264912 89.4454151,150.115083 80.0600356,150.115083 C78.2053354,150.115083 76.895652,149.692435 76.0550325,148.823543 C74.1336162,146.838532 74.2865495,142.231459 74.4343508,137.777236 C74.5298056,134.908972 74.6293663,131.9412 74.2198337,129.285285 C73.9057559,127.243853 73.3822931,125.056749 72.8762794,122.942481 C70.828616,114.394109 69.8504591,108.54884 74.698135,105.317426 C75.4792235,104.797322 76.2726289,104.543938 77.1235124,104.543938 C82.6599008,104.543938 89.9083203,115.454833 91.4325205,120.941056 C93.8147893,129.104737 93.2759307,133.789774 91.4458637,139.581699 L91.4458637,139.581699 L91.4458637,139.581699 Z M71.4937217,183.496103 C57.7441002,186.752137 42.7976987,181.02997 34.0876893,173.912652 C29.2430927,169.954939 26.4122883,165.679214 26.5159544,162.474472 C26.6339902,158.821436 28.2998334,156.398388 31.2065912,155.649521 C35.5441475,154.5334 42.2116257,157.242659 46.5768947,164.580533 C50.4679677,171.1203 57.63017,174.604072 66.8749328,174.452247 C84.7732533,174.112692 105.401791,160.769517 114.898021,143.404 C117.791436,142.259157 120.806992,140.796301 123.885159,138.957985 C116.612105,159.507726 95.2630362,177.870365 71.4937217,183.496103 L71.4937217,183.496103 L71.4937217,183.496103 Z M139.850773,43.2578627 C147.693476,65.4058721 149.812987,117.562946 125.717278,134.144717 C112.990975,142.902362 101.03139,144.389838 94.2561402,144.370347 C94.8247645,143.038799 95.2045317,141.760596 95.4005735,140.688587 C97.394864,134.334498 98.0189138,128.852379 95.3810719,119.816729 C95.2650891,119.39921 95.1059974,118.924244 94.9140612,118.411321 C99.9454619,108.420609 108.823801,106.087836 113.69611,105.594404 C120.387196,104.920424 127.160393,106.924926 129.819789,110.364587 C130.33812,111.037542 131.308066,111.160643 131.97933,110.640539 C132.65162,110.122487 132.775814,109.155115 132.25543,108.483186 C131.300881,107.248067 129.968617,106.17093 128.382833,105.27434 C129.799261,100.308221 130.523898,95.1512948 130.523898,89.9317916 C130.523898,85.5781023 130.017884,81.2767311 129.032542,77.0871772 C129.317881,77.3241477 129.66275,77.4513526 130.011726,77.4513526 C130.431522,77.4513526 130.850292,77.2810622 131.154106,76.9435588 C131.723757,76.3136897 131.67449,75.340162 131.044281,74.7708175 L129.826974,73.6711109 C119.840126,64.6446943 113.241416,58.6814532 103.295624,56.6246325 C97.1587926,55.3546356 90.2634537,56.8841715 84.1820482,58.2331586 C80.2355497,59.109231 76.5107529,59.9329849 74.0627949,59.6785752 C70.8060354,59.3369685 68.1887215,57.7551147 67.547223,55.7444569 C66.9231735,53.7881692 68.2051439,51.2810022 71.156037,48.6856124 C79.761354,41.1158968 95.7464696,38.8354417 107.550041,43.4907297 C108.340368,43.8046383 109.235386,43.415843 109.547411,42.6249158 C109.859436,41.8339889 109.471458,40.9404773 108.681131,40.6286201 C103.883749,38.7359348 98.4397367,37.9091031 93.0141992,38.0516957 C93.2287163,37.6864946 93.2985113,37.2382001 93.1599476,36.8032412 C92.900269,35.9938491 92.0370689,35.548632 91.2241618,35.8061192 C83.0150343,38.4312586 73.5495961,40.7989104 65.1290304,35.6204412 C64.7708177,35.3998844 64.3387045,35.336282 63.9291719,35.4429699 C63.5216919,35.5496577 63.1768224,35.8204813 62.9725693,36.1887599 C59.3863361,42.7059577 47.0439054,46.9878379 45.1040141,46.1240758 C43.9585545,45.6152563 42.3758495,44.2160027 41.6861103,41.9468317 C40.7387454,38.8313384 41.6820048,34.8982459 44.4111957,30.5702026 C54.3949648,14.7444806 73.0723211,5.68113363 94.3834136,6.3263906 C102.958965,6.58490374 110.80988,9.03359749 117.648767,13.4108812 C117.201258,13.7063248 116.876916,14.1012754 116.694217,14.6070173 C116.466357,15.2379124 115.77046,17.1572698 120.815203,21.3570822 L121.18368,21.670991 C125.746017,25.5579205 129.885479,28.2025508 133.56614,29.9947032 C136.015125,33.9719071 138.129504,38.3963799 139.850773,43.2578627 L139.850773,43.2578627 L139.850773,43.2578627 Z M165.750889,19.1320229 C163.93827,22.7358189 159.322561,27.390081 151.808304,29.6428383 C150.224573,30.1178048 148.541281,30.3588786 146.801537,30.3588786 L146.799484,30.3588786 C141.929228,30.3578525 133.878165,28.4436245 123.182076,19.3289852 L122.785887,18.9935337 C121.213446,17.6835287 120.22913,16.5356073 119.827809,15.8800919 C120.098778,15.8575233 120.517548,15.8575233 120.991744,15.8954796 C126.436783,16.3365932 135.215561,16.3878855 141.345207,16.3878855 C144.657392,16.3878855 147.976762,16.371472 151.083667,16.3560843 C153.814911,16.3417225 156.382958,16.3294123 158.641033,16.3294123 C162.88416,16.3294123 165.54253,16.3817304 166.564822,16.4853408 C166.564822,16.9008084 166.427284,17.7850874 165.750889,19.1320229 L165.750889,19.1320229 L165.750889,19.1320229 Z" id="Fill-14" fill="#000000"></path>
                            <path d="M61.5848798,28.0394413 C59.1369215,29.8746793 59.8749014,32.14385 62.6112774,32.4854566 C65.3486796,32.8270633 65.5621702,33.0086381 68.0860819,31.1169785 C70.8224576,29.0652871 71.1652744,25.6451174 68.0860819,25.9877498 C65.0068891,26.3303823 62.9540939,27.0135956 61.5848798,28.0394413" id="Fill-15" fill="#000000"></path>
                            <path d="M54.4000969,29.4079195 C54.4000969,31.1077458 53.0216448,32.4854566 51.3209041,32.4854566 C49.6211897,32.4854566 48.2417116,31.1077458 48.2417116,29.4079195 C48.2417116,27.7080931 49.6211897,26.3303823 51.3209041,26.3303823 C53.0216448,26.3303823 54.4000969,27.7080931 54.4000969,29.4079195" id="Fill-16" fill="#000000"></path>
                            <path d="M89.9822208,20.859547 C89.9822208,22.5593734 88.603769,23.9370842 86.9030283,23.9370842 C85.2022873,23.9370842 83.8238355,22.5593734 83.8238355,20.859547 C83.8238355,19.1597207 85.2022873,17.7820098 86.9030283,17.7820098 C88.603769,17.7820098 89.9822208,19.1597207 89.9822208,20.859547" id="Fill-17" fill="#000000"></path>
                            <path d="M32.6887092,141.689812 L32.6887092,141.689812 C31.8983833,141.689812 31.0249189,141.576969 30.0919235,141.353335 C19.6791203,138.854374 5.42759027,123.227666 3.62523617,114.52234 C2.81951408,110.629255 3.55954671,107.030588 5.70882321,104.392113 C7.60868508,102.061391 10.4805454,100.724715 13.5884772,100.724715 C16.386437,100.724715 19.2295582,101.774155 21.8109481,103.759166 C26.8803256,107.656354 35.4794843,124.741815 37.3352111,128.980609 C38.1070619,130.744038 39.6394736,136.037402 37.4922499,139.320109 C36.7850619,140.40135 35.3768444,141.689812 32.6887092,141.689812 L32.6887092,141.689812 L32.6887092,141.689812 Z M13.5884772,103.802252 C11.3786433,103.802252 9.42746156,104.701919 8.09827671,106.334039 C6.54328442,108.243138 6.02598005,110.928802 6.64079218,113.898625 C8.20912765,121.475522 21.6836748,136.170762 30.8104018,138.359917 C31.5073258,138.52713 32.1395866,138.612275 32.6887092,138.612275 C34.1112965,138.612275 34.6409174,138.055241 34.9159919,137.63567 C36.0286069,135.933792 35.3973724,132.23254 34.5146706,130.215728 C31.9876797,124.443294 23.9797261,109.310017 19.9326405,106.197602 C17.8952414,104.630109 15.7018298,103.802252 13.5884772,103.802252 L13.5884772,103.802252 L13.5884772,103.802252 Z" id="Fill-18" fill="#000000"></path>
                        </g>
                    </g>
                </g>
            </g>
            <g id="Sesame-Seeds" transform="translate(23.000000, 52.000000)" fill="#FEF796">
                <path d="M10.8571429,28 C11.3008066,28 11.6702075,27.3150555 11.7142857,26.7142857 C11.7172387,26.6740372 11.7142857,27.1874419 11.7142857,27.1428571 C11.7142857,26.4327768 11.3305298,25 10.8571429,25 C10.3837559,25 10,26.0042053 10,26.7142857 C10,27.4243661 10.3837559,28 10.8571429,28 Z" id="Oval-3" transform="translate(10.857799, 26.500000) rotate(-80.000000) translate(-10.857799, -26.500000) "></path>
                <path d="M1.84449277,34.7823841 C2.2581514,34.7823841 2.60256959,34.1437627 2.6436668,33.5836231 C2.6464201,33.5460966 2.6436668,34.0247796 2.6436668,33.9832101 C2.6436668,33.3211527 2.2858644,31.985275 1.84449277,31.985275 C1.40312114,31.985275 1.04531874,32.9215657 1.04531874,33.5836231 C1.04531874,34.2456805 1.40312114,34.7823841 1.84449277,34.7823841 Z" id="Oval-3" transform="translate(1.845105, 33.383830) rotate(-36.000000) translate(-1.845105, -33.383830) "></path>
                <path d="M11.8571429,45 C12.3008066,45 12.6702075,44.3150555 12.7142857,43.7142857 C12.7172387,43.6740372 12.7142857,44.1874419 12.7142857,44.1428571 C12.7142857,43.4327768 12.3305298,42 11.8571429,42 C11.3837559,42 11,43.0042053 11,43.7142857 C11,44.4243661 11.3837559,45 11.8571429,45 Z" id="Oval-3" transform="translate(11.857799, 43.500000) rotate(21.000000) translate(-11.857799, -43.500000) "></path>
                <path d="M3.85714286,47 C4.3008066,47 4.67020748,46.3150555 4.71428571,45.7142857 C4.71723873,45.6740372 4.71428571,46.1874419 4.71428571,46.1428571 C4.71428571,45.4327768 4.33052979,44 3.85714286,44 C3.38375593,44 3,45.0042053 3,45.7142857 C3,46.4243661 3.38375593,47 3.85714286,47 Z" id="Oval-3" transform="translate(3.857799, 45.500000) rotate(-72.000000) translate(-3.857799, -45.500000) "></path>
                <path d="M7.85714286,54 C8.3008066,54 8.67020748,53.3150555 8.71428571,52.7142857 C8.71723873,52.6740372 8.71428571,53.1874419 8.71428571,53.1428571 C8.71428571,52.4327768 8.33052979,51 7.85714286,51 C7.38375593,51 7,52.0042053 7,52.7142857 C7,53.4243661 7.38375593,54 7.85714286,54 Z" id="Oval-3" style="mix-blend-mode: hard-light;"></path>
                <path d="M22.8571429,61 C23.3008066,61 23.6702075,60.3150555 23.7142857,59.7142857 C23.7172387,59.6740372 23.7142857,60.1874419 23.7142857,60.1428571 C23.7142857,59.4327768 23.3305298,58 22.8571429,58 C22.3837559,58 22,59.0042053 22,59.7142857 C22,60.4243661 22.3837559,61 22.8571429,61 Z" id="Oval-3" style="mix-blend-mode: hard-light;"></path>
                <path d="M43.8571429,89 C44.3008066,89 44.6702075,88.3150555 44.7142857,87.7142857 C44.7172387,87.6740372 44.7142857,88.1874419 44.7142857,88.1428571 C44.7142857,87.4327768 44.3305298,86 43.8571429,86 C43.3837559,86 43,87.0042053 43,87.7142857 C43,88.4243661 43.3837559,89 43.8571429,89 Z" id="Oval-3" style="mix-blend-mode: hard-light;"></path>
                <path d="M20.8571429,68 C21.3008066,68 21.6702075,67.3150555 21.7142857,66.7142857 C21.7172387,66.6740372 21.7142857,67.1874419 21.7142857,67.1428571 C21.7142857,66.4327768 21.3305298,65 20.8571429,65 C20.3837559,65 20,66.0042053 20,66.7142857 C20,67.4243661 20.3837559,68 20.8571429,68 Z" id="Oval-3" style="mix-blend-mode: hard-light;" transform="translate(20.857799, 66.500000) rotate(-32.000000) translate(-20.857799, -66.500000) "></path>
                <path d="M22.4996175,52 C22.7582234,52 22.9735424,51.5433704 22.999235,51.1428571 C23.0009563,51.1160248 22.999235,51.4582946 22.999235,51.4285714 C22.999235,50.9551845 22.7755486,50 22.4996175,50 C22.2236864,50 22,50.6694702 22,51.1428571 C22,51.6162441 22.2236864,52 22.4996175,52 Z" id="Oval-3" style="mix-blend-mode: hard-light;"></path>
                <path d="M31.1428571,69 C31.7344088,69 32.2269433,68.0867407 32.2857143,67.2857143 C32.2896516,67.2320496 32.2857143,67.9165892 32.2857143,67.8571429 C32.2857143,66.910369 31.7740397,65 31.1428571,65 C30.5116746,65 30,66.3389404 30,67.2857143 C30,68.2324881 30.5116746,69 31.1428571,69 Z" id="Oval-3" style="mix-blend-mode: hard-light;" transform="translate(31.143732, 67.000000) rotate(41.000000) translate(-31.143732, -67.000000) "></path>
                <path d="M36.8571429,57 C37.3008066,57 37.6702075,56.3150555 37.7142857,55.7142857 C37.7172387,55.6740372 37.7142857,56.1874419 37.7142857,56.1428571 C37.7142857,55.4327768 37.3305298,54 36.8571429,54 C36.3837559,54 36,55.0042053 36,55.7142857 C36,56.4243661 36.3837559,57 36.8571429,57 Z" id="Oval-3" style="mix-blend-mode: hard-light;" transform="translate(36.857799, 55.500000) rotate(-63.000000) translate(-36.857799, -55.500000) "></path>
                <path d="M37.8571429,76 C38.3008066,76 38.6702075,75.3150555 38.7142857,74.7142857 C38.7172387,74.6740372 38.7142857,75.1874419 38.7142857,75.1428571 C38.7142857,74.4327768 38.3305298,73 37.8571429,73 C37.3837559,73 37,74.0042053 37,74.7142857 C37,75.4243661 37.3837559,76 37.8571429,76 Z" id="Oval-3" style="mix-blend-mode: hard-light;"></path>
                <path d="M40.8571429,68 C41.3008066,68 41.6702075,67.3150555 41.7142857,66.7142857 C41.7172387,66.6740372 41.7142857,67.1874419 41.7142857,67.1428571 C41.7142857,66.4327768 41.3305298,65 40.8571429,65 C40.3837559,65 40,66.0042053 40,66.7142857 C40,67.4243661 40.3837559,68 40.8571429,68 Z" id="Oval-3" style="mix-blend-mode: hard-light;"></path>
                <path d="M80.8571429,39 C81.3008066,39 81.6702075,38.3150555 81.7142857,37.7142857 C81.7172387,37.6740372 81.7142857,38.1874419 81.7142857,38.1428571 C81.7142857,37.4327768 81.3305298,36 80.8571429,36 C80.3837559,36 80,37.0042053 80,37.7142857 C80,38.4243661 80.3837559,39 80.8571429,39 Z" id="Oval-3" style="mix-blend-mode: hard-light;"></path>
                <path d="M90.5709911,39 C91.1625427,39 91.6550772,38.0867407 91.7138482,37.2857143 C91.7177856,37.2320496 91.7138482,37.9165892 91.7138482,37.8571429 C91.7138482,36.910369 91.2021737,35 90.5709911,35 C89.9398085,35 89.4281339,36.3389404 89.4281339,37.2857143 C89.4281339,38.2324881 89.9398085,39 90.5709911,39 Z" id="Oval-3" style="mix-blend-mode: hard-light;" transform="translate(90.571866, 37.000000) rotate(84.000000) translate(-90.571866, -37.000000) "></path>
                <path d="M74.4996175,45 C74.7582234,45 74.9735424,44.5433704 74.999235,44.1428571 C75.0009563,44.1160248 74.999235,44.4582946 74.999235,44.4285714 C74.999235,43.9551845 74.7755486,43 74.4996175,43 C74.2236864,43 74,43.6694702 74,44.1428571 C74,44.6162441 74.2236864,45 74.4996175,45 Z" id="Oval-3" style="mix-blend-mode: hard-light;"></path>
                <path d="M71.8571429,56 C72.3008066,56 72.6702075,55.3150555 72.7142857,54.7142857 C72.7172387,54.6740372 72.7142857,55.1874419 72.7142857,55.1428571 C72.7142857,54.4327768 72.3305298,53 71.8571429,53 C71.3837559,53 71,54.0042053 71,54.7142857 C71,55.4243661 71.3837559,56 71.8571429,56 Z" id="Oval-3" style="mix-blend-mode: hard-light;" transform="translate(71.857799, 54.500000) rotate(50.000000) translate(-71.857799, -54.500000) "></path>
                <path d="M75.4996175,28 C75.7582234,28 75.9735424,27.5433704 75.999235,27.1428571 C76.0009563,27.1160248 75.999235,27.4582946 75.999235,27.4285714 C75.999235,26.9551845 75.7755486,26 75.4996175,26 C75.2236864,26 75,26.6694702 75,27.1428571 C75,27.6162441 75.2236864,28 75.4996175,28 Z" id="Oval-3" style="mix-blend-mode: hard-light;"></path>
                <path d="M68.8571429,13 C69.3008066,13 69.6702075,12.3150555 69.7142857,11.7142857 C69.7172387,11.6740372 69.7142857,12.1874419 69.7142857,12.1428571 C69.7142857,11.4327768 69.3305298,10 68.8571429,10 C68.3837559,10 68,11.0042053 68,11.7142857 C68,12.4243661 68.3837559,13 68.8571429,13 Z" id="Oval-3" style="mix-blend-mode: hard-light;" transform="translate(68.857799, 11.500000) rotate(27.000000) translate(-68.857799, -11.500000) "></path>
                <path d="M77.8571429,17 C78.3008066,17 78.6702075,16.3150555 78.7142857,15.7142857 C78.7172387,15.6740372 78.7142857,16.1874419 78.7142857,16.1428571 C78.7142857,15.4327768 78.3305298,14 77.8571429,14 C77.3837559,14 77,15.0042053 77,15.7142857 C77,16.4243661 77.3837559,17 77.8571429,17 Z" id="Oval-3" style="mix-blend-mode: hard-light;" transform="translate(77.857799, 15.500000) rotate(55.000000) translate(-77.857799, -15.500000) "></path>
                <path d="M90.8571429,18 C91.3008066,18 91.6702075,17.3150555 91.7142857,16.7142857 C91.7172387,16.6740372 91.7142857,17.1874419 91.7142857,17.1428571 C91.7142857,16.4327768 91.3305298,15 90.8571429,15 C90.3837559,15 90,16.0042053 90,16.7142857 C90,17.4243661 90.3837559,18 90.8571429,18 Z" id="Oval-3" style="mix-blend-mode: hard-light;" transform="translate(90.857799, 16.500000) rotate(14.000000) translate(-90.857799, -16.500000) "></path>
                <path d="M85.8571429,28 C86.3008066,28 86.6702075,27.3150555 86.7142857,26.7142857 C86.7172387,26.6740372 86.7142857,27.1874419 86.7142857,27.1428571 C86.7142857,26.4327768 86.3305298,25 85.8571429,25 C85.3837559,25 85,26.0042053 85,26.7142857 C85,27.4243661 85.3837559,28 85.8571429,28 Z" id="Oval-3" style="mix-blend-mode: hard-light;" transform="translate(85.857799, 26.500000) rotate(236.000000) translate(-85.857799, -26.500000) "></path>
                <path d="M85.8571429,48 C86.3008066,48 86.6702075,47.3150555 86.7142857,46.7142857 C86.7172387,46.6740372 86.7142857,47.1874419 86.7142857,47.1428571 C86.7142857,46.4327768 86.3305298,45 85.8571429,45 C85.3837559,45 85,46.0042053 85,46.7142857 C85,47.4243661 85.3837559,48 85.8571429,48 Z" id="Oval-3" style="mix-blend-mode: hard-light;"></path>
                <path d="M96.8571429,48 C97.3008066,48 97.6702075,47.3150555 97.7142857,46.7142857 C97.7172387,46.6740372 97.7142857,47.1874419 97.7142857,47.1428571 C97.7142857,46.4327768 97.3305298,45 96.8571429,45 C96.3837559,45 96,46.0042053 96,46.7142857 C96,47.4243661 96.3837559,48 96.8571429,48 Z" id="Oval-3" style="mix-blend-mode: hard-light;" transform="translate(96.857799, 46.500000) rotate(61.000000) translate(-96.857799, -46.500000) "></path>
                <path d="M95.8571429,31 C96.3008066,31 96.6702075,30.3150555 96.7142857,29.7142857 C96.7172387,29.6740372 96.7142857,30.1874419 96.7142857,30.1428571 C96.7142857,29.4327768 96.3305298,28 95.8571429,28 C95.3837559,28 95,29.0042053 95,29.7142857 C95,30.4243661 95.3837559,31 95.8571429,31 Z" id="Oval-3" style="mix-blend-mode: hard-light;" transform="translate(95.857799, 29.500000) rotate(98.000000) translate(-95.857799, -29.500000) "></path>
                <path d="M44.8571429,82 C45.3008066,82 45.6702075,81.3150555 45.7142857,80.7142857 C45.7172387,80.6740372 45.7142857,81.1874419 45.7142857,81.1428571 C45.7142857,80.4327768 45.3305298,79 44.8571429,79 C44.3837559,79 44,80.0042053 44,80.7142857 C44,81.4243661 44.3837559,82 44.8571429,82 Z" id="Oval-3" style="mix-blend-mode: hard-light;"></path>
                <path d="M18.4996175,24 C18.7582234,24 18.9735424,23.5433704 18.999235,23.1428571 C19.0009563,23.1160248 18.999235,23.4582946 18.999235,23.4285714 C18.999235,22.9551845 18.7755486,22 18.4996175,22 C18.2236864,22 18,22.6694702 18,23.1428571 C18,23.6162441 18.2236864,24 18.4996175,24 Z" id="Oval-3" style="mix-blend-mode: hard-light;"></path>
                <path d="M17.4996175,38 C17.7582234,38 17.9735424,37.5433704 17.999235,37.1428571 C18.0009563,37.1160248 17.999235,37.4582946 17.999235,37.4285714 C17.999235,36.9551845 17.7755486,36 17.4996175,36 C17.2236864,36 17,36.6694702 17,37.1428571 C17,37.6162441 17.2236864,38 17.4996175,38 Z" id="Oval-3" style="mix-blend-mode: hard-light;"></path>
                <path d="M29.4996175,60 C29.7582234,60 29.9735424,59.5433704 29.999235,59.1428571 C30.0009563,59.1160248 29.999235,59.4582946 29.999235,59.4285714 C29.999235,58.9551845 29.7755486,58 29.4996175,58 C29.2236864,58 29,58.6694702 29,59.1428571 C29,59.6162441 29.2236864,60 29.4996175,60 Z" id="Oval-3" style="mix-blend-mode: hard-light;"></path>
                <path d="M15.999235,54 C16.5164467,54 16.9470847,53.0867407 16.99847,52.2857143 C17.0019125,52.2320496 16.99847,52.9165892 16.99847,52.8571429 C16.99847,51.910369 16.5510972,50 15.999235,50 C15.4473727,50 15,51.3389404 15,52.2857143 C15,53.2324881 15.4473727,54 15.999235,54 Z" id="Oval-3" style="mix-blend-mode: hard-light;"></path>
                <path d="M6.85714286,19 C7.3008066,19 7.67020748,18.3150555 7.71428571,17.7142857 C7.71723873,17.6740372 7.71428571,18.1874419 7.71428571,18.1428571 C7.71428571,17.4327768 7.33052979,16 6.85714286,16 C6.38375593,16 6,17.0042053 6,17.7142857 C6,18.4243661 6.38375593,19 6.85714286,19 Z" id="Oval-3" style="mix-blend-mode: hard-light;"></path>
                <path d="M38.8571429,14 C39.3008066,14 39.6702075,13.3150555 39.7142857,12.7142857 C39.7172387,12.6740372 39.7142857,13.1874419 39.7142857,13.1428571 C39.7142857,12.4327768 39.3305298,11 38.8571429,11 C38.3837559,11 38,12.0042053 38,12.7142857 C38,13.4243661 38.3837559,14 38.8571429,14 Z" id="Oval-3" style="mix-blend-mode: hard-light;"></path>
                <path d="M33.8571429,3 C34.3008066,3 34.6702075,2.31505555 34.7142857,1.71428571 C34.7172387,1.67403723 34.7142857,2.18744192 34.7142857,2.14285714 C34.7142857,1.43277675 34.3305298,0 33.8571429,0 C33.3837559,0 33,1.00420532 33,1.71428571 C33,2.42436611 33.3837559,3 33.8571429,3 Z" id="Oval-3" style="mix-blend-mode: hard-light;" transform="translate(33.857799, 1.500000) rotate(-66.000000) translate(-33.857799, -1.500000) "></path>
                <path d="M17.8571429,13 C18.3008066,13 18.6702075,12.3150555 18.7142857,11.7142857 C18.7172387,11.6740372 18.7142857,12.1874419 18.7142857,12.1428571 C18.7142857,11.4327768 18.3305298,10 17.8571429,10 C17.3837559,10 17,11.0042053 17,11.7142857 C17,12.4243661 17.3837559,13 17.8571429,13 Z" id="Oval-3" style="mix-blend-mode: hard-light;" transform="translate(17.857799, 11.500000) rotate(45.000000) translate(-17.857799, -11.500000) "></path>
                <path d="M28.4996175,16 C28.7582234,16 28.9735424,15.5433704 28.999235,15.1428571 C29.0009563,15.1160248 28.999235,15.4582946 28.999235,15.4285714 C28.999235,14.9551845 28.7755486,14 28.4996175,14 C28.2236864,14 28,14.6694702 28,15.1428571 C28,15.6162441 28.2236864,16 28.4996175,16 Z" id="Oval-3" style="mix-blend-mode: hard-light;"></path>
                <path d="M24.4996175,37 C24.7582234,37 24.9735424,36.5433704 24.999235,36.1428571 C25.0009563,36.1160248 24.999235,36.4582946 24.999235,36.4285714 C24.999235,35.9551845 24.7755486,35 24.4996175,35 C24.2236864,35 24,35.6694702 24,36.1428571 C24,36.6162441 24.2236864,37 24.4996175,37 Z" id="Oval-3" style="mix-blend-mode: hard-light;"></path>
            </g>
        </g>
    </g>
</svg>